<svg width="28" height="28" viewBox="0 0 28 28" fill="none" xmlns="http://www.w3.org/2000/svg">
<path d="M18.8 2C23.44 2 26 4.56 26 9.2V18.8C26 23.44 23.44 26 18.8 26H9.2C4.56 26 2 23.44 2 18.8V9.2C2 4.56 4.56 2 9.2 2H18.8ZM18.8 0H9.2C3.45 0 0 3.45 0 9.2V18.8C0 24.55 3.45 28 9.2 28H18.8C24.55 28 28 24.55 28 18.8V9.2C28 3.45 24.55 0 18.8 0Z" fill="#7D7D7D"/>
<path d="M14 9.33C16.57 9.33 18.67 11.42 18.67 14C18.67 16.58 16.58 18.67 14 18.67C11.42 18.67 9.33 16.57 9.33 14C9.33 11.43 11.43 9.33 14 9.33ZM14 7C10.13 7 7 10.13 7 14C7 17.87 10.13 21 14 21C17.87 21 21 17.87 21 14C21 10.13 17.87 7 14 7Z" fill="#7D7D7D"/>
<path d="M21.7502 8.75C22.5787 8.75 23.2502 8.07843 23.2502 7.25C23.2502 6.42157 22.5787 5.75 21.7502 5.75C20.9218 5.75 20.2502 6.42157 20.2502 7.25C20.2502 8.07843 20.9218 8.75 21.7502 8.75Z" fill="#7D7D7D"/>
</svg>
