<svg width="22" height="22" viewBox="0 0 22 22" fill="none" xmlns="http://www.w3.org/2000/svg">
<path d="M14.7714 1.57143C18.4171 1.57143 20.4286 3.58286 20.4286 7.22857V14.7714C20.4286 18.4171 18.4171 20.4286 14.7714 20.4286H7.22857C3.58286 20.4286 1.57143 18.4171 1.57143 14.7714V7.22857C1.57143 3.58286 3.58286 1.57143 7.22857 1.57143H14.7714ZM14.7714 0H7.22857C2.71071 0 0 2.71071 0 7.22857V14.7714C0 19.2893 2.71071 22 7.22857 22H14.7714C19.2893 22 22 19.2893 22 14.7714V7.22857C22 2.71071 19.2893 0 14.7714 0Z" fill="black"/>
<path d="M11 7.33071C13.0193 7.33071 14.6693 8.97286 14.6693 11C14.6693 13.0271 13.0271 14.6693 11 14.6693C8.97286 14.6693 7.33071 13.0193 7.33071 11C7.33071 8.98071 8.98071 7.33071 11 7.33071ZM11 5.5C7.95929 5.5 5.5 7.95929 5.5 11C5.5 14.0407 7.95929 16.5 11 16.5C14.0407 16.5 16.5 14.0407 16.5 11C16.5 7.95929 14.0407 5.5 11 5.5Z" fill="black"/>
<path d="M17.0892 6.87515C17.7401 6.87515 18.2678 6.34748 18.2678 5.69658C18.2678 5.04567 17.7401 4.51801 17.0892 4.51801C16.4383 4.51801 15.9106 5.04567 15.9106 5.69658C15.9106 6.34748 16.4383 6.87515 17.0892 6.87515Z" fill="black"/>
</svg>
