<?xml version="1.0" encoding="utf-8"?>
<!-- Generator: Adobe Illustrator 16.0.0, SVG Export Plug-In . SVG Version: 6.00 Build 0)  -->
<!DOCTYPE svg PUBLIC "-//W3C//DTD SVG 1.1//EN" "http://www.w3.org/Graphics/SVG/1.1/DTD/svg11.dtd">
<svg version="1.1" id="レイヤー_1" xmlns="http://www.w3.org/2000/svg" xmlns:xlink="http://www.w3.org/1999/xlink" x="0px"
	 y="0px" width="94.078px" height="89.4px" viewBox="0 0 94.078 89.4" enable-background="new 0 0 94.078 89.4"
	 xml:space="preserve">
<polygon points="44.567,28.351 44.314,28.286 44.138,28.489 44.129,28.925 44.044,29.364 44.231,29.796 44.027,30.236 
	44.206,30.669 44.187,31.106 44.049,31.544 44.198,31.979 44.15,32.416 44.259,32.851 44.08,33.288 44.258,33.723 44.119,34.161 
	44.199,34.596 44.224,35.033 44.223,35.469 44.123,35.906 44.233,36.342 44.194,36.779 44.302,37.214 44.278,37.651 44.18,38.087 
	44.115,38.523 44.296,38.959 44.295,39.395 44.211,39.83 44.291,40.267 44.248,40.702 44.292,41.137 44.141,41.572 44.233,42.01 
	44.11,42.447 44.188,42.884 44.126,43.32 44.083,43.756 44.067,44.191 44.205,44.628 44.079,45.062 44.093,45.498 44.16,45.933 
	44.2,46.366 44.231,46.802 44.186,47.236 44.201,47.671 44.105,48.104 44.13,48.537 44.131,48.971 44.166,49.404 44.115,49.834 
	44.099,50.273 44.167,50.71 44.066,51.144 44.001,51.58 43.986,52.017 44.14,52.454 44.145,52.894 43.933,53.332 44.055,53.772 
	44.039,54.209 44.111,54.649 43.99,55.088 44.034,55.526 44.135,55.963 43.975,56.403 44.141,56.84 44.11,57.278 43.99,57.718 
	43.986,58.157 44.018,58.594 43.986,59.033 44.032,59.47 44.174,59.906 44.043,60.349 44.051,60.786 44.13,61.22 44.215,61.653 
	44.289,62.096 44.669,62.258 45.111,62.201 45.553,62.071 45.995,62.129 46.436,62.236 46.876,62.184 47.318,62.053 47.759,62.174 
	48.229,62.185 48.643,62.225 49.143,62.2 49.527,62.095 49.97,62.094 50.412,62.22 50.854,62.11 51.296,62.188 51.737,62.207 
	52.18,62.077 52.623,62.06 53.064,62.082 53.507,62.202 53.949,62.167 54.391,62.055 54.831,62.124 55.271,62.182 55.711,62.114 
	56.151,62.069 56.592,62.158 57.032,62.073 57.474,62.057 57.914,62.226 58.356,62.155 58.799,62.236 59.24,62.089 59.681,62.113 
	60.123,62.084 60.563,62.159 61.005,62.238 61.447,62.096 61.889,62.206 62.333,62.249 62.775,62.05 63.218,62.216 63.662,62.158 
	64.105,62.135 64.549,62.185 64.965,62.24 65.409,62.022 65.853,62.164 66.298,62.24 66.741,62.031 67.215,62.147 67.659,62.24 
	68.103,62.175 68.512,62.125 68.957,62.175 69.4,62.105 69.883,62.256 70.327,62.205 70.771,62.156 71.215,62.144 71.66,62.268 
	72.074,62.181 72.514,62.229 72.957,62.144 73.43,62.216 73.847,62.133 74.289,62.198 74.73,62.142 75.173,62.218 75.613,62.168 
	76.054,62.129 76.47,62.268 76.911,62.101 77.384,62.24 77.826,62.198 78.265,62.197 78.705,62.3 79.147,62.178 79.607,62.193 
	80.036,62.3 80.305,62.245 80.589,62.278 80.88,62.162 81.034,61.987 80.968,61.756 80.804,61.55 80.672,61.285 80.327,61.088 
	80.084,60.76 79.607,60.443 79.354,60.063 78.944,59.811 78.645,59.505 78.26,59.252 78.02,58.885 77.67,58.618 77.311,58.361 
	77.013,58.031 76.657,57.77 76.374,57.427 76.038,57.143 75.623,56.947 75.423,56.512 75.062,56.255 74.78,55.911 74.376,55.705 
	74.032,55.429 73.721,55.116 73.401,54.815 73.148,54.44 72.684,54.297 72.404,53.95 72.181,53.473 71.836,53.198 71.465,52.953 
	71.112,52.687 70.829,52.323 70.524,52.01 70.089,51.839 69.841,51.46 69.468,51.219 69.167,50.897 68.771,50.681 68.455,50.377 
	68.172,50.035 67.923,49.656 67.492,49.477 67.231,49.11 66.805,48.925 66.511,48.594 66.254,48.224 65.936,47.92 65.517,47.727 
	65.304,47.309 64.988,47.003 64.678,46.691 64.336,46.412 64.029,46.096 63.68,45.824 63.348,45.535 63.035,45.223 62.724,44.909 
	62.267,44.754 61.937,44.461 61.718,44.045 61.365,43.776 61.09,43.422 60.691,43.201 60.301,42.973 60.108,42.528 59.649,42.372 
	59.453,41.932 59.137,41.621 58.675,41.469 58.412,41.1 58.127,40.755 57.803,40.454 57.446,40.188 57.176,39.825 56.765,39.618 
	56.51,39.242 56.066,39.069 55.784,38.79 55.495,38.448 55.206,38.11 54.831,37.864 54.549,37.515 54.093,37.357 53.861,36.956 
	53.578,36.624 53.24,36.339 52.938,36.015 52.604,35.727 52.263,35.445 51.945,35.139 51.579,34.846 51.375,34.419 50.937,34.244 
	50.613,33.946 50.308,33.629 50.014,33.3 49.714,32.977 49.37,32.701 49.021,32.429 48.74,32.049 48.353,31.856 48.066,31.505 
	47.724,31.228 47.355,30.981 47.012,30.706 46.816,30.276 46.379,30.054 46.122,29.76 45.818,29.481 45.515,29.162 45.18,28.898 
	44.86,28.532 "/>
<polygon points="72.823,6.763 72.369,6.738 71.915,6.698 71.463,6.758 71.009,6.72 70.555,6.729 70.103,6.74 69.65,6.804 
	69.197,6.746 68.745,6.849 68.292,6.778 67.839,6.776 67.387,6.86 66.934,6.731 66.482,6.794 66.028,6.748 65.576,6.753 
	65.124,6.825 64.675,6.741 64.225,6.775 63.773,6.753 63.319,6.744 62.865,6.753 62.413,6.665 61.959,6.707 61.507,6.651 
	61.054,6.697 60.601,6.664 60.148,6.719 59.696,6.723 59.243,6.756 58.791,6.743 58.336,6.666 57.883,6.719 57.431,6.779 
	56.979,6.687 56.525,6.681 56.073,6.693 55.621,6.703 55.172,6.804 54.719,6.708 54.271,6.784 53.893,6.882 53.793,7.254 
	53.677,7.665 53.618,8.084 53.595,8.508 53.554,8.928 53.65,9.357 53.575,9.781 53.547,10.228 53.58,10.675 53.653,11.121 
	53.567,11.571 53.671,12.017 53.615,12.466 53.624,12.915 53.597,13.365 53.655,13.812 53.709,14.258 53.676,14.708 53.648,15.159 
	53.646,15.607 53.712,16.054 53.795,16.503 53.785,16.966 53.829,17.426 53.766,17.889 53.786,18.348 53.845,18.807 53.842,19.268 
	53.913,19.727 53.884,20.187 53.846,20.647 53.872,21.106 53.802,21.565 53.802,22.023 53.852,22.482 53.898,22.942 53.91,23.403 
	53.812,23.863 53.81,24.322 53.892,24.779 53.931,25.236 53.86,25.696 53.946,26.152 53.983,26.608 54.021,27.064 54.038,27.52 
	54.097,27.971 54.242,28.326 54.654,28.233 54.916,27.86 55.287,27.605 55.598,27.285 55.983,27.047 56.301,26.733 56.609,26.409 
	56.961,26.132 57.253,25.789 57.577,25.482 57.973,25.256 58.262,24.91 58.615,24.637 58.915,24.301 59.236,23.991 59.627,23.76 
	59.996,23.505 60.305,23.178 60.639,22.886 60.973,22.59 61.312,22.3 61.65,22.009 61.992,21.719 62.359,21.459 62.64,21.098 
	63.001,20.834 63.348,20.551 63.63,20.19 64.002,19.938 64.316,19.614 64.695,19.364 65.047,19.074 65.397,18.786 65.776,18.532 
	66.091,18.201 66.386,17.849 66.755,17.585 67.116,17.31 67.459,17.014 67.817,16.738 68.139,16.419 68.493,16.138 68.835,15.844 
	69.162,15.531 69.496,15.229 69.806,14.9 70.174,14.635 70.536,14.366 70.833,14.021 71.195,13.745 71.551,13.464 71.89,13.165 
	72.245,12.884 72.49,12.48 72.906,12.27 73.2,11.924 73.521,11.61 73.839,11.289 74.195,11.013 74.519,10.696 74.822,10.362 
	75.228,10.135 75.52,9.789 75.829,9.465 76.175,9.172 76.511,8.873 76.83,8.556 77.148,8.24 77.469,7.925 77.732,7.555 
	78.061,7.253 78.168,6.912 77.849,6.731 77.394,6.746 76.938,6.802 76.482,6.715 76.025,6.694 75.571,6.781 75.115,6.746 
	74.657,6.781 74.199,6.71 73.741,6.795 73.282,6.804 "/>
<polygon points="35.626,20.378 35.738,19.937 35.851,19.495 35.666,19.05 35.824,18.61 35.887,18.168 35.625,17.72 35.855,17.28 
	35.784,16.835 35.759,16.391 35.832,15.948 35.707,15.503 35.685,15.059 35.742,14.615 35.763,14.176 35.716,13.733 35.818,13.294 
	35.951,12.853 35.87,12.409 35.75,11.965 35.825,11.523 35.735,11.079 36.004,10.639 35.942,10.195 35.886,9.749 35.876,9.303 
	36.05,8.861 35.758,8.41 35.884,7.966 35.777,7.518 36.064,7.077 35.798,6.626 35.896,6.181 35.828,5.735 35.941,5.291 
	35.884,4.844 35.839,4.399 35.995,3.959 35.92,3.514 36.087,3.074 36.137,2.63 36.053,2.185 36.147,1.745 36.055,1.3 36.01,0.857 
	35.912,0.52 35.654,0.301 35.306,0 34.66,0.277 34.213,0.269 33.765,0.194 33.318,0.23 32.922,0.499 32.502,0.628 31.997,0.486 
	31.591,0.683 31.2,0.906 30.817,1.143 30.364,1.214 29.976,1.435 29.6,1.679 29.173,1.82 28.805,2.075 28.372,2.209 27.992,2.444 
	27.702,2.819 27.19,2.834 26.852,3.13 26.429,3.299 26.147,3.678 25.802,3.96 25.423,4.195 25.057,4.448 24.614,4.603 24.435,5.096 
	24.032,5.302 23.576,5.453 23.259,5.771 22.983,6.137 22.682,6.477 22.246,6.67 21.895,6.956 21.725,7.429 21.296,7.637 
	21.05,8.029 20.705,8.323 20.505,8.751 20.191,9.074 19.832,9.359 19.426,9.607 19.303,10.09 18.919,10.362 18.805,10.844 
	18.488,11.167 18.113,11.454 17.842,11.818 17.745,12.297 17.314,12.555 17.058,12.931 16.796,13.302 16.596,13.713 16.34,14.091 
	16.165,14.513 15.964,14.921 15.737,15.312 15.513,15.706 15.556,16.226 15.379,16.639 15,16.968 14.874,17.407 14.608,17.789 
	14.576,18.264 14.539,18.734 14.135,19.068 14.236,19.582 13.847,19.93 13.689,20.358 13.812,20.869 13.563,21.27 13.359,21.683 
	13.238,22.128 13.186,22.581 12.973,22.995 13.046,23.471 12.824,23.888 12.979,24.369 12.793,24.792 12.66,25.226 12.536,25.666 
	12.587,26.123 12.459,26.564 12.686,27.031 12.475,27.469 12.464,27.919 12.477,28.37 12.423,28.821 12.442,29.271 12.479,29.722 
	12.475,30.173 12.596,30.617 12.38,31.075 12.631,31.511 12.662,31.96 12.663,32.409 12.646,32.863 12.645,33.316 12.736,33.76 
	12.84,34.202 12.99,34.638 13.005,35.089 12.911,35.558 13.021,35.997 13.19,36.428 13.312,36.866 13.157,37.352 13.479,37.752 
	13.307,38.251 13.526,38.67 13.527,39.141 13.791,39.541 13.805,40.001 13.961,40.427 14.077,40.864 14.245,41.284 14.472,41.684 
	14.553,42.13 14.54,42.613 14.872,42.969 14.921,43.432 15.122,43.836 15.425,44.193 15.611,44.599 15.665,45.069 15.795,45.508 
	16.021,45.898 16.375,46.221 16.529,46.646 16.662,47.084 17.021,47.396 17.059,47.895 17.345,48.245 17.754,48.521 17.757,49.042 
	18.037,49.394 18.284,49.791 18.741,49.937 19.153,50.054 19.569,50.316 20.02,50.122 20.47,50.17 20.92,50.192 21.372,50.129 
	21.823,50.295 22.275,50.152 22.726,50.097 23.177,50.072 23.627,50.189 24.078,50.094 24.53,50.224 24.981,50.217 25.433,50.055 
	25.885,50.282 26.336,50.129 26.789,50.214 27.24,50.123 27.692,50.288 28.144,50.127 28.596,50.133 29.047,50.327 29.498,50.162 
	29.948,50.198 30.4,50.045 30.853,50.256 31.306,50.318 31.758,50.218 32.211,50.156 32.664,50.322 33.116,50.064 33.569,50.046 
	34.024,50.2 34.48,50.134 34.936,50.288 35.28,50.017 35.462,49.677 35.468,49.229 35.646,48.785 35.478,48.329 35.656,47.888 
	35.419,47.429 35.679,46.988 35.45,46.531 35.73,46.088 35.491,45.634 35.728,45.19 35.701,44.739 35.541,44.286 35.655,43.838 
	35.515,43.384 35.572,42.934 35.558,42.483 35.738,42.035 35.81,41.585 35.835,41.133 35.748,40.679 35.743,40.228 35.775,39.775 
	35.82,39.323 35.838,38.871 35.809,38.417 35.793,37.964 35.688,37.51 35.654,37.057 35.709,36.603 35.654,36.151 35.615,35.697 
	35.855,35.244 35.771,34.79 35.886,34.337 35.752,33.884 35.633,33.429 35.803,32.977 35.706,32.523 35.617,32.071 35.825,31.617 
	35.736,31.164 35.666,30.712 35.605,30.26 35.893,29.806 35.75,29.354 35.772,28.902 35.655,28.452 35.625,28.001 35.691,27.55 
	35.664,27.099 35.87,26.648 35.714,26.199 35.764,25.75 35.715,25.302 35.619,24.855 35.752,24.407 35.589,23.958 35.754,23.509 
	35.635,23.061 35.817,22.614 35.723,22.164 35.669,21.716 35.718,21.27 35.69,20.822 "/>
<g>
	<path d="M76.583,89.258v-0.211c1.186-0.114,1.354-0.228,1.354-1.121v-8.742c0-0.894-0.169-1.007-1.354-1.121v-0.212h9.153
		l0.085,2.926h-0.17c-0.778-2.113-1.573-2.616-3.081-2.616h-2.144v5.054h1.643c1.15,0,1.439-0.667,1.558-1.707h0.203v3.721h-0.203
		c-0.118-1.04-0.407-1.705-1.558-1.705h-1.643v4.338c0,0.878-0.065,1.088,0.984,1.088h1.43c1.372,0,2.506-0.894,3.42-3.118h0.187
		l-0.559,3.428H76.583z"/>
	<path d="M92.725,87.925c0,0.894,0.152,1.008,1.354,1.122v0.211h-5.196v-0.211c1.185-0.114,1.354-0.229,1.354-1.122v-8.741
		c0-0.894-0.17-1.007-1.354-1.122v-0.21h5.196v0.21c-1.201,0.115-1.354,0.229-1.354,1.122V87.925z"/>
	<path d="M66.361,87.925c0,0.894,0.153,1.008,1.354,1.122v0.211h-5.198v-0.211c1.185-0.114,1.355-0.229,1.355-1.122v-8.741
		c0-0.894-0.171-1.007-1.355-1.122v-0.21h5.198v0.21c-1.201,0.115-1.354,0.229-1.354,1.122V87.925z"/>
	<path d="M67.004,83.523l4.601-4.322c0.251-0.244,0.411-0.472,0.411-0.683c0-0.309-0.393-0.39-1.681-0.455v-0.212h4.152v0.212
		c-0.86,0.017-1.361,0.276-2.006,0.86l-3.402,3.153l3.941,5.096c0.769,0.991,1.644,1.875,2.38,1.875v0.211h-3.777
		c-0.556-0.406-1.288-1.349-2.221-2.632L67.004,83.523z"/>
	<path d="M10.522,79.661L7.1,89.304H6.764l-3.845-9.643l-0.961,8.105c-0.118,1.052,0.321,1.197,1.72,1.278v0.21H0.037v-0.21
		c0.943-0.049,1.399-0.227,1.483-0.971l1.062-8.769c0-0.81-0.387-1.149-1.5-1.198v-0.21h3.86c0.034,0.373,0.135,0.631,0.271,0.986
		l2.747,6.974l2.444-6.989c0.118-0.372,0.219-0.598,0.252-0.971h3.776v0.21c-1.18,0.049-1.483,0.389-1.483,1.198l1.062,8.769
		c0.084,0.776,0.404,0.922,1.383,0.971v0.21h-5.379v-0.21c1.332-0.065,1.603-0.243,1.467-1.425L10.522,79.661z"/>
	<path d="M22.989,87.763c0,0.495,0.246,0.729,0.659,0.729c0.199,0,0.383-0.044,0.536-0.116l0.031,0.072
		c-0.383,0.567-1.042,0.946-1.762,0.946c-0.827,0-1.409-0.496-1.547-1.223c-0.49,0.583-1.333,1.192-2.375,1.192
		c-1.149,0-2.068-0.698-2.068-1.833c0-1.12,0.935-1.732,2.252-2.154l2.175-0.714v-1.471c0-0.915-0.307-1.558-1.104-1.558
		c-0.735,0-1.056,0.584-1.056,1.397c0,0.32,0.061,0.729,0.152,1.005l-1.302,0.16c-0.383-0.102-0.689-0.467-0.689-0.932
		c0-1.15,1.485-1.863,3.094-1.863c1.93,0,3.003,0.685,3.003,2.388V87.763z M20.89,88.025v-3.143l-1.271,0.479
		c-0.721,0.277-1.119,0.715-1.119,1.588c0,0.887,0.491,1.483,1.271,1.483C20.17,88.432,20.553,88.331,20.89,88.025"/>
	<path d="M28.537,88.46c0,0.524,0.276,0.583,0.981,0.626v0.175h-4.105v-0.175c0.72-0.043,0.995-0.102,0.995-0.626v-5.56
		l-0.949-0.642v-0.057l3.017-0.803h0.061V88.46z M26.209,79.378c0-0.628,0.49-1.15,1.241-1.15c0.735,0,1.241,0.522,1.241,1.15
		c0,0.609-0.506,1.149-1.241,1.149C26.7,80.528,26.209,79.988,26.209,79.378"/>
	<path d="M31.184,88.681l-0.092-2.155h0.138c0.367,1.544,1.425,2.665,2.743,2.665c0.857,0,1.516-0.51,1.516-1.384
		c0-1.993-4.258-1.223-4.258-4.003c0-1.47,1.363-2.402,2.956-2.402c0.95,0,1.717,0.247,2.36,0.642v1.848h-0.138
		c-0.184-1.077-1.073-2.271-2.283-2.271c-0.827,0-1.363,0.495-1.363,1.237c0,1.98,4.321,1.193,4.321,4.019
		c0,1.543-1.364,2.532-3.171,2.532C32.869,89.408,31.797,89.117,31.184,88.681"/>
	<path d="M46.528,85.245c0,2.475-1.747,4.163-3.984,4.163c-2.313,0-3.922-1.602-3.922-3.828c0-2.475,1.748-4.179,3.983-4.179
		C44.903,81.402,46.528,83.003,46.528,85.245 M44.275,85.784c0-2.315-0.552-4.179-1.747-4.179c-1.118,0-1.654,1.34-1.654,3.42
		c0,2.316,0.536,4.179,1.747,4.179C43.74,89.204,44.275,87.865,44.275,85.784"/>
	<path d="M53.625,83.905c0-0.902-0.354-1.354-1.242-1.354c-0.598,0-1.179,0.203-1.639,0.495v5.414c0,0.524,0.276,0.583,0.98,0.626
		v0.175h-4.105v-0.175c0.72-0.043,0.996-0.102,0.996-0.626V82.9l-0.95-0.641v-0.058l3.079-0.802h0.062l-0.062,1.529
		c0.552-0.67,1.593-1.529,2.835-1.529c1.439,0,2.175,0.859,2.175,2.374v4.687c0,0.524,0.291,0.583,0.995,0.626v0.175h-4.105v-0.175
		c0.705-0.043,0.981-0.102,0.981-0.626V83.905z"/>
</g>
</svg>
