<?xml version="1.0" encoding="utf-8"?>
<!-- Generator: Adobe Illustrator 16.0.0, SVG Export Plug-In . SVG Version: 6.00 Build 0)  -->
<!DOCTYPE svg PUBLIC "-//W3C//DTD SVG 1.1//EN" "http://www.w3.org/Graphics/SVG/1.1/DTD/svg11.dtd">
<svg version="1.1" id="レイヤー_1" xmlns="http://www.w3.org/2000/svg" xmlns:xlink="http://www.w3.org/1999/xlink" x="0px"
	 y="0px" width="104.5px" height="90.612px" viewBox="0 0 104.5 90.612" enable-background="new 0 0 104.5 90.612"
	 xml:space="preserve">
<g>
	<g>
		<polygon fill="#000000" points="49.686,29.106 49.426,29.04 49.246,29.248 49.236,29.696 49.149,30.145 49.341,30.59 
			49.132,31.041 49.315,31.485 49.295,31.935 49.154,32.384 49.308,32.83 49.258,33.279 49.37,33.726 49.186,34.176 49.37,34.622 
			49.226,35.071 49.308,35.518 49.334,35.966 49.333,36.414 49.23,36.863 49.343,37.31 49.302,37.758 49.414,38.206 49.389,38.653 
			49.288,39.101 49.221,39.549 49.408,39.996 49.407,40.444 49.321,40.891 49.403,41.339 49.358,41.786 49.404,42.233 
			49.248,42.679 49.343,43.129 49.217,43.577 49.296,44.025 49.233,44.473 49.188,44.92 49.172,45.368 49.314,45.816 49.185,46.262 
			49.198,46.709 49.268,47.155 49.308,47.602 49.341,48.048 49.293,48.494 49.31,48.941 49.212,49.384 49.236,49.83 49.238,50.276 
			49.274,50.719 49.222,51.162 49.205,51.611 49.275,52.06 49.172,52.506 49.105,52.954 49.09,53.402 49.247,53.852 49.251,54.302 
			49.035,54.753 49.16,55.204 49.143,55.654 49.217,56.104 49.094,56.555 49.138,57.005 49.242,57.453 49.078,57.905 49.247,58.353 
			49.216,58.803 49.094,59.255 49.089,59.706 49.122,60.155 49.089,60.605 49.136,61.054 49.282,61.502 49.147,61.955 
			49.157,62.404 49.238,62.85 49.325,63.295 49.4,63.749 49.791,63.917 50.244,63.858 50.698,63.723 51.151,63.784 51.604,63.893 
			52.057,63.841 52.51,63.705 52.963,63.83 53.445,63.841 53.87,63.882 54.383,63.858 54.778,63.749 55.232,63.747 55.686,63.877 
			56.141,63.763 56.594,63.844 57.048,63.865 57.502,63.73 57.956,63.712 58.41,63.734 58.864,63.859 59.317,63.823 59.771,63.708 
			60.223,63.778 60.674,63.838 61.126,63.766 61.579,63.722 62.032,63.814 62.484,63.726 62.937,63.709 63.389,63.884 
			63.843,63.811 64.297,63.893 64.749,63.742 65.201,63.766 65.655,63.737 66.108,63.815 66.561,63.896 67.015,63.749 
			67.469,63.864 67.925,63.907 68.379,63.702 68.833,63.873 69.289,63.814 69.744,63.79 70.201,63.841 70.626,63.898 71.083,63.673 
			71.538,63.819 71.995,63.898 72.45,63.682 72.937,63.803 73.394,63.898 73.849,63.832 74.268,63.78 74.725,63.831 75.182,63.758 
			75.676,63.915 76.131,63.861 76.588,63.812 77.043,63.8 77.499,63.927 77.925,63.838 78.376,63.886 78.832,63.8 79.317,63.873 
			79.745,63.787 80.199,63.855 80.653,63.796 81.107,63.875 81.56,63.825 82.012,63.783 82.438,63.927 82.892,63.754 83.376,63.898 
			83.832,63.855 84.282,63.854 84.733,63.959 85.188,63.835 85.661,63.849 86.1,63.959 86.375,63.903 86.667,63.937 86.966,63.817 
			87.125,63.637 87.057,63.401 86.888,63.189 86.751,62.918 86.397,62.715 86.149,62.378 85.66,62.052 85.401,61.662 84.979,61.404 
			84.671,61.089 84.276,60.83 84.029,60.454 83.67,60.18 83.302,59.915 82.998,59.578 82.63,59.309 82.339,58.957 81.996,58.665 
			81.57,58.463 81.363,58.017 80.994,57.754 80.703,57.401 80.288,57.188 79.935,56.905 79.616,56.584 79.288,56.274 79.028,55.889 
			78.552,55.743 78.264,55.387 78.035,54.897 77.681,54.615 77.299,54.364 76.938,54.089 76.648,53.717 76.333,53.396 
			75.887,53.219 75.633,52.83 75.25,52.583 74.941,52.253 74.535,52.031 74.209,51.718 73.919,51.368 73.663,50.98 73.221,50.795 
			72.955,50.417 72.517,50.228 72.213,49.889 71.951,49.508 71.624,49.196 71.195,48.997 70.975,48.569 70.651,48.255 
			70.333,47.934 69.98,47.648 69.666,47.323 69.308,47.046 68.967,46.748 68.646,46.427 68.326,46.105 67.857,45.946 67.518,45.645 
			67.293,45.218 66.932,44.941 66.648,44.578 66.24,44.352 65.837,44.118 65.641,43.66 65.17,43.501 64.968,43.049 64.643,42.73 
			64.169,42.573 63.9,42.194 63.608,41.84 63.273,41.533 62.907,41.258 62.631,40.886 62.208,40.673 61.946,40.287 61.491,40.11 
			61.201,39.823 60.905,39.473 60.608,39.125 60.223,38.872 59.934,38.514 59.466,38.352 59.228,37.94 58.938,37.6 58.59,37.307 
			58.28,36.974 57.937,36.677 57.586,36.389 57.26,36.075 56.884,35.774 56.674,35.335 56.225,35.156 55.893,34.85 55.58,34.524 
			55.278,34.187 54.97,33.854 54.617,33.572 54.258,33.292 53.969,32.902 53.572,32.704 53.279,32.345 52.928,32.06 52.549,31.806 
			52.195,31.523 51.995,31.083 51.546,30.855 51.282,30.552 50.97,30.266 50.66,29.939 50.315,29.667 49.987,29.292 		"/>
		<polygon fill="#000000" points="78.694,6.943 78.229,6.917 77.763,6.876 77.297,6.938 76.832,6.899 76.367,6.908 75.901,6.92 
			75.437,6.985 74.972,6.926 74.508,7.031 74.043,6.958 73.577,6.957 73.113,7.042 72.648,6.911 72.185,6.975 71.719,6.927 
			71.254,6.933 70.79,7.007 70.328,6.921 69.868,6.956 69.403,6.933 68.938,6.924 68.471,6.933 68.007,6.843 67.541,6.885 
			67.076,6.828 66.612,6.875 66.146,6.841 65.682,6.898 65.218,6.902 64.754,6.936 64.289,6.922 63.822,6.843 63.356,6.898 
			62.892,6.959 62.427,6.865 61.962,6.859 61.498,6.871 61.035,6.882 60.573,6.985 60.107,6.887 59.648,6.964 59.26,7.065 
			59.157,7.447 59.038,7.869 58.978,8.299 58.953,8.734 58.911,9.167 59.011,9.606 58.935,10.041 58.906,10.5 58.94,10.959 
			59.014,11.417 58.926,11.879 59.032,12.337 58.975,12.798 58.984,13.259 58.957,13.721 59.016,14.18 59.071,14.637 59.036,15.099 
			59.009,15.562 59.006,16.023 59.074,16.48 59.159,16.942 59.149,17.417 59.194,17.89 59.128,18.365 59.151,18.837 59.21,19.309 
			59.208,19.781 59.281,20.252 59.251,20.725 59.212,21.196 59.238,21.667 59.167,22.139 59.167,22.609 59.218,23.08 59.266,23.553 
			59.277,24.026 59.178,24.498 59.175,24.969 59.259,25.439 59.299,25.907 59.227,26.38 59.314,26.849 59.353,27.317 59.393,27.785 
			59.41,28.252 59.469,28.716 59.619,29.081 60.042,28.984 60.312,28.602 60.691,28.34 61.011,28.011 61.406,27.767 61.731,27.444 
			62.05,27.112 62.41,26.828 62.709,26.476 63.042,26.161 63.449,25.929 63.747,25.574 64.108,25.293 64.416,24.948 64.746,24.63 
			65.146,24.393 65.527,24.13 65.843,23.796 66.187,23.495 66.529,23.192 66.877,22.894 67.225,22.594 67.576,22.297 67.952,22.03 
			68.24,21.66 68.61,21.39 68.967,21.098 69.256,20.728 69.639,20.468 69.962,20.136 70.35,19.879 70.71,19.582 71.071,19.286 
			71.461,19.025 71.783,18.686 72.085,18.324 72.466,18.053 72.835,17.771 73.188,17.467 73.555,17.183 73.886,16.855 
			74.249,16.567 74.6,16.266 74.936,15.945 75.279,15.634 75.598,15.296 75.974,15.025 76.348,14.749 76.652,14.395 77.024,14.112 
			77.389,13.822 77.736,13.515 78.1,13.227 78.352,12.812 78.779,12.596 79.082,12.241 79.412,11.918 79.737,11.59 80.103,11.306 
			80.435,10.981 80.748,10.638 81.163,10.404 81.463,10.049 81.782,9.716 82.136,9.416 82.481,9.109 82.808,8.784 83.135,8.459 
			83.464,8.136 83.734,7.756 84.072,7.446 84.183,7.096 83.854,6.911 83.387,6.925 82.92,6.983 82.451,6.894 81.982,6.872 
			81.517,6.961 81.047,6.925 80.578,6.961 80.107,6.889 79.637,6.976 79.166,6.985 		"/>
		<polygon fill="#000000" points="40.507,20.919 40.622,20.467 40.737,20.015 40.548,19.557 40.71,19.105 40.774,18.652 
			40.505,18.192 40.742,17.74 40.669,17.283 40.644,16.827 40.718,16.373 40.59,15.916 40.567,15.46 40.625,15.005 40.647,14.553 
			40.599,14.099 40.704,13.647 40.84,13.196 40.757,12.74 40.635,12.283 40.71,11.83 40.619,11.373 40.896,10.923 40.832,10.466 
			40.773,10.008 40.763,9.551 40.942,9.097 40.643,8.634 40.771,8.178 40.662,7.718 40.957,7.265 40.683,6.802 40.784,6.346 
			40.713,5.886 40.83,5.432 40.771,4.974 40.726,4.516 40.885,4.064 40.81,3.607 40.98,3.156 41.031,2.7 40.945,2.243 41.042,1.791 
			40.947,1.334 40.901,0.88 40.8,0.534 40.536,0.309 40.178,0 39.515,0.284 39.057,0.276 38.595,0.198 38.137,0.236 37.731,0.513 
			37.299,0.645 36.781,0.499 36.365,0.701 35.963,0.93 35.569,1.173 35.105,1.246 34.706,1.473 34.32,1.724 33.882,1.868 
			33.504,2.129 33.059,2.269 32.67,2.508 32.371,2.894 31.846,2.91 31.498,3.213 31.064,3.386 30.775,3.776 30.42,4.066 
			30.031,4.307 29.656,4.566 29.202,4.726 29.018,5.231 28.604,5.443 28.135,5.598 27.811,5.924 27.527,6.301 27.219,6.65 
			26.771,6.847 26.409,7.142 26.235,7.627 25.795,7.841 25.543,8.243 25.188,8.544 24.982,8.984 24.661,9.315 24.292,9.607 
			23.875,9.862 23.748,10.358 23.354,10.637 23.238,11.131 22.912,11.465 22.527,11.759 22.25,12.132 22.149,12.624 21.707,12.889 
			21.444,13.275 21.175,13.657 20.97,14.077 20.708,14.466 20.527,14.899 20.321,15.318 20.088,15.72 19.858,16.125 19.902,16.658 
			19.72,17.083 19.331,17.419 19.201,17.87 18.929,18.262 18.896,18.75 18.858,19.232 18.443,19.575 18.546,20.103 18.147,20.46 
			17.985,20.9 18.113,21.425 17.856,21.836 17.647,22.261 17.523,22.718 17.469,23.182 17.25,23.607 17.325,24.096 17.098,24.524 
			17.256,25.018 17.066,25.452 16.93,25.899 16.802,26.349 16.854,26.819 16.723,27.271 16.956,27.751 16.738,28.2 16.728,28.662 
			16.74,29.125 16.686,29.587 16.705,30.051 16.743,30.514 16.739,30.977 16.864,31.432 16.642,31.903 16.899,32.351 16.931,32.81 
			16.932,33.272 16.915,33.737 16.914,34.203 17.007,34.659 17.115,35.113 17.269,35.561 17.283,36.023 17.187,36.504 
			17.299,36.957 17.473,37.398 17.599,37.847 17.44,38.347 17.77,38.758 17.593,39.27 17.818,39.7 17.818,40.183 18.09,40.594 
			18.104,41.066 18.265,41.503 18.384,41.952 18.556,42.384 18.789,42.794 18.873,43.252 18.859,43.748 19.2,44.113 19.25,44.588 
			19.456,45.003 19.768,45.37 19.958,45.787 20.013,46.269 20.147,46.719 20.38,47.121 20.743,47.453 20.901,47.888 21.038,48.338 
			21.406,48.659 21.445,49.17 21.739,49.53 22.159,49.812 22.162,50.349 22.449,50.709 22.703,51.118 23.172,51.266 23.595,51.387 
			24.023,51.656 24.484,51.458 24.947,51.505 25.409,51.528 25.873,51.464 26.336,51.634 26.8,51.487 27.263,51.431 27.725,51.406 
			28.188,51.526 28.651,51.428 29.115,51.562 29.579,51.554 30.042,51.388 30.506,51.622 30.969,51.464 31.434,51.551 
			31.897,51.458 32.361,51.627 32.826,51.462 33.29,51.469 33.752,51.668 34.215,51.497 34.678,51.535 35.143,51.377 35.607,51.595 
			36.071,51.657 36.537,51.556 37.001,51.493 37.466,51.662 37.929,51.397 38.396,51.378 38.862,51.537 39.33,51.47 39.798,51.628 
			40.152,51.349 40.339,51 40.345,50.539 40.527,50.085 40.355,49.617 40.538,49.163 40.295,48.692 40.561,48.239 40.326,47.77 
			40.614,47.315 40.368,46.848 40.612,46.393 40.583,45.931 40.419,45.465 40.537,45.005 40.393,44.54 40.451,44.078 40.438,43.615 
			40.623,43.154 40.695,42.692 40.722,42.229 40.632,41.763 40.627,41.299 40.66,40.834 40.706,40.37 40.724,39.906 40.694,39.44 
			40.678,38.975 40.571,38.509 40.535,38.043 40.592,37.578 40.535,37.113 40.496,36.647 40.742,36.183 40.654,35.716 
			40.773,35.251 40.636,34.786 40.514,34.32 40.688,33.854 40.589,33.39 40.498,32.924 40.711,32.459 40.62,31.994 40.547,31.53 
			40.485,31.065 40.781,30.6 40.635,30.136 40.657,29.672 40.537,29.209 40.506,28.746 40.573,28.283 40.545,27.82 40.757,27.358 
			40.597,26.897 40.648,26.436 40.598,25.977 40.5,25.518 40.635,25.057 40.469,24.596 40.638,24.135 40.516,23.675 40.703,23.216 
			40.606,22.755 40.55,22.294 40.601,21.836 40.572,21.375 		"/>
	</g>
	<g>
		<path fill="#000000" d="M9.467,81.802l-3.09,8.708H6.073l-3.471-8.708l-0.867,7.32c-0.107,0.95,0.289,1.081,1.552,1.154v0.19H0
			v-0.19c0.852-0.044,1.263-0.204,1.339-0.877l0.959-7.917c0-0.731-0.35-1.038-1.354-1.081v-0.189h3.485
			c0.03,0.335,0.122,0.569,0.244,0.891l2.481,6.296l2.207-6.311c0.106-0.337,0.197-0.541,0.228-0.876h3.409V80.4
			c-1.065,0.043-1.338,0.35-1.338,1.081l0.958,7.917c0.077,0.702,0.366,0.833,1.249,0.877v0.19H9.011v-0.19
			c1.202-0.058,1.446-0.22,1.324-1.285L9.467,81.802z"/>
		<path fill="#000000" d="M17.611,90.466h-3.197v-0.19c0.579-0.044,1.004-0.146,1.249-0.774l3.196-8.254l-0.441-1.111h2.359
			l3.76,9.569c0.167,0.424,0.532,0.542,1.035,0.57v0.19h-4.749v-0.19c0.868-0.028,1.249-0.19,1.249-0.643
			c0-0.146-0.062-0.336-0.137-0.57l-1.004-2.542h-3.745l-0.959,2.527c-0.076,0.219-0.106,0.395-0.106,0.54
			c0,0.467,0.502,0.659,1.492,0.687V90.466z M19.026,81.685l-1.735,4.544h3.531L19.026,81.685z"/>
		<path fill="#000000" d="M30.325,89.268c0,0.804,0.137,0.907,1.217,1.008v0.19h-4.673v-0.19c1.066-0.101,1.218-0.204,1.218-1.008
			v-7.859c0-0.803-0.152-0.905-1.218-1.008v-0.189h4.673V80.4c-1.08,0.103-1.217,0.205-1.217,1.008V89.268z"/>
		<path fill="#000000" d="M35.779,82.051c0,2.542,5.495,1.534,5.495,5.288c0,1.973-1.796,3.272-3.958,3.272
			c-1.385,0-2.648-0.423-3.333-0.964l-0.122-2.6h0.152c0.365,1.781,1.614,3.345,3.334,3.345c1.278,0,2.146-0.76,2.146-1.898
			c0-3.084-5.434-1.812-5.434-5.377c0-1.797,1.583-3.053,3.653-3.053c1.127,0,2.116,0.336,2.953,0.847l0.03,2.265h-0.152
			c-0.335-1.724-1.4-2.893-2.816-2.893C36.495,80.283,35.779,81.058,35.779,82.051"/>
		<path fill="#000000" d="M53.401,85.134c0,3.2-2.283,5.478-5.145,5.478c-3.15,0-4.932-2.381-4.932-5.069
			c0-3.2,2.268-5.478,5.129-5.478C51.605,80.064,53.401,82.446,53.401,85.134 M45.7,85.251c0,2.644,0.821,5.157,2.724,5.157
			c1.796,0,2.587-2.396,2.587-4.981c0-2.645-0.807-5.157-2.725-5.157C46.506,80.27,45.7,82.665,45.7,85.251"/>
		<path fill="#000000" d="M64.005,90.612l-7.427-8.78v7.421c0,0.818,0.396,0.95,1.842,1.022v0.19h-3.622v-0.19
			c1.095-0.073,1.414-0.204,1.414-1.022v-7.845c-0.562-0.628-0.989-0.978-1.491-1.022V80.21h3.44l5.875,7.115v-5.902
			c0-0.818-0.35-0.95-1.811-1.022v-0.19h3.577v0.19c-1.096,0.073-1.416,0.205-1.416,1.022v9.189H64.005z"/>
		<path fill="#000000" d="M88.02,90.612v-0.195c1.096-0.105,1.253-0.21,1.253-1.037v-8.083c0-0.826-0.157-0.931-1.253-1.037v-0.194
			h8.464l0.078,2.705h-0.157c-0.72-1.954-1.455-2.419-2.849-2.419h-1.981v4.673h1.519c1.064,0,1.33-0.617,1.44-1.578h0.188v3.44
			h-0.188c-0.111-0.962-0.376-1.577-1.44-1.577h-1.519v4.012c0,0.811-0.062,1.006,0.909,1.006h1.322
			c1.269,0,2.317-0.827,3.163-2.884h0.172l-0.517,3.17H88.02z"/>
		<path fill="#000000" d="M103.248,89.379c0,0.827,0.141,0.932,1.252,1.037v0.195h-4.805v-0.195c1.095-0.105,1.251-0.21,1.251-1.037
			v-8.083c0-0.826-0.156-0.931-1.251-1.036v-0.196h4.805v0.196c-1.111,0.105-1.252,0.21-1.252,1.036V89.379z"/>
		<path fill="#000000" d="M78.388,89.379c0,0.827,0.141,0.932,1.252,1.037v0.195h-4.806v-0.195c1.096-0.105,1.252-0.21,1.252-1.037
			v-8.083c0-0.826-0.156-0.931-1.252-1.036v-0.196h4.806v0.196c-1.111,0.105-1.252,0.21-1.252,1.036V89.379z"/>
		<path fill="#000000" d="M78.982,85.308l4.254-3.997c0.231-0.225,0.38-0.437,0.38-0.631c0-0.286-0.364-0.361-1.555-0.422v-0.195
			h3.84v0.195c-0.795,0.016-1.258,0.256-1.854,0.797l-3.146,2.914l3.645,4.713c0.71,0.916,1.52,1.733,2.2,1.733v0.195h-3.494
			c-0.513-0.376-1.19-1.247-2.052-2.433L78.982,85.308z"/>
	</g>
</g>
</svg>
