<svg width="220" height="33" viewBox="0 0 220 33" fill="none" xmlns="http://www.w3.org/2000/svg">
<path d="M17.5174 15.018L17.3804 14.9824L17.2845 15.0891L17.28 15.3201L17.2343 15.5512L17.3348 15.7822L17.2252 16.0133L17.3211 16.2443L17.3119 16.4754L17.2343 16.7064L17.3165 16.9374L17.2891 17.1685L17.3485 17.3995L17.2526 17.6306L17.3485 17.8616L17.2754 18.0927L17.3165 18.3237L17.3302 18.5548V18.7858L17.2754 19.0169L17.3348 19.2479L17.3165 19.479L17.3713 19.71L17.3622 19.9411L17.3074 20.1721L17.2708 20.4032L17.3713 20.6342V20.8653L17.3256 21.0963L17.3667 21.3274L17.3439 21.5584L17.3667 21.7895L17.2845 22.0205L17.3348 22.2516L17.2708 22.4826L17.3119 22.7137L17.2754 22.9447L17.2526 23.1758L17.2435 23.4068L17.3211 23.6379L17.2526 23.8689L17.2572 24.1L17.2937 24.331L17.3165 24.5576L17.3348 24.7887L17.3074 25.0197L17.3165 25.2508L17.2663 25.4774L17.28 25.7084V25.9395L17.2982 26.1661L17.2708 26.3971L17.2617 26.6282L17.2982 26.8592L17.2435 27.0903L17.2115 27.3213L17.2024 27.5524L17.2845 27.7834L17.2891 28.0145L17.1704 28.25L17.2389 28.481L17.2298 28.7121L17.2708 28.9475L17.2024 29.1786L17.2252 29.4096L17.28 29.6407L17.1932 29.8762L17.2845 30.1072L17.2708 30.3383L17.2024 30.5738V30.8048L17.2206 31.0359L17.2024 31.2669L17.2252 31.498L17.3028 31.729L17.2298 31.9645L17.2389 32.1956L17.28 32.4266L17.3256 32.6577L17.3667 32.8887L17.5722 32.9776L17.8141 32.9465L18.0561 32.8754L18.2935 32.9065L18.5355 32.9642L18.7729 32.9376L19.0148 32.8665L19.2568 32.9331L19.5124 32.9376L19.7361 32.9598L20.0055 32.9465L20.2155 32.8887H20.4575L20.6994 32.9554L20.9414 32.8976L21.1788 32.9376L21.4208 32.9509L21.6627 32.8798L21.9001 32.8709L22.1421 32.8843L22.384 32.9465L22.6214 32.9287L22.8634 32.8709L23.1054 32.9065L23.3428 32.9376L23.5802 32.8976L23.8221 32.8754L24.0641 32.9243L24.3015 32.8798L24.5435 32.8709L24.7809 32.9598L25.0228 32.9243L25.2648 32.9642L25.5022 32.8887L25.7442 32.8976L25.9816 32.8843L26.2235 32.9243L26.4655 32.9642L26.7029 32.8887L26.9448 32.9509L27.1868 32.9731L27.4288 32.8665L27.6662 32.9554L27.9081 32.9243L28.1501 32.9109L28.3921 32.9376L28.6203 32.9687L28.8623 32.8532L29.1043 32.9287L29.3417 32.9687L29.5836 32.8576L29.8438 32.9198L30.0858 32.9687L30.3278 32.9331L30.5469 32.9065L30.7889 32.9331L31.0308 32.8932L31.2956 32.9776L31.5376 32.9465L31.7796 32.9243L32.0215 32.9154L32.2635 32.982L32.4872 32.9376L32.7292 32.9598L32.9665 32.9154L33.2268 32.9554L33.4505 32.9109L33.6924 32.9465L33.9344 32.9154L34.1764 32.9554L34.4138 32.9287L34.6557 32.9065L34.8794 32.982L35.1214 32.8932L35.3771 32.9687L35.619 32.9465H35.8564L36.0984 32.9998L36.3358 32.9331L36.5869 32.942L36.8197 32.9998L36.9658 32.9687L37.121 32.9865L37.2808 32.9243L37.363 32.8309L37.3265 32.711L37.2397 32.5999L37.1667 32.4622L36.9795 32.3555L36.8471 32.1822L36.5869 32.0134L36.4499 31.8134L36.2262 31.6801L36.0619 31.5202L35.8564 31.3824L35.724 31.1914L35.5323 31.0492L35.336 30.9115L35.1762 30.7382L34.9844 30.6004L34.8292 30.4183L34.6466 30.2672L34.4183 30.165L34.3088 29.934L34.1125 29.7962L33.9618 29.614L33.7381 29.5074L33.5555 29.3608L33.382 29.1919L33.2085 29.032L33.0716 28.8365L32.8205 28.7609L32.6698 28.5743L32.5465 28.3255L32.3594 28.1789L32.1539 28.05L31.9667 27.9078L31.8115 27.7168L31.6426 27.5479L31.4052 27.4591L31.2728 27.2547L31.0674 27.1303L30.9076 26.9614L30.6884 26.8459L30.5195 26.6815L30.3643 26.5038L30.2273 26.3038L29.9945 26.2061L29.853 26.0106L29.6201 25.9128L29.4604 25.7395L29.3188 25.544L29.1453 25.3841L28.9216 25.2819L28.8029 25.0597L28.6295 24.8953L28.4651 24.7309L28.2779 24.5843L28.109 24.4154L27.9173 24.2733L27.7392 24.1177L27.5703 23.9533L27.3968 23.7889L27.1503 23.7045L26.9722 23.549L26.8535 23.3313L26.6618 23.1891L26.5111 22.998L26.292 22.8825L26.082 22.7625L25.977 22.5271L25.7259 22.4426L25.6209 22.2116L25.4474 22.0472L25.1963 21.9672L25.0548 21.7717L24.8996 21.5851L24.7215 21.4296L24.5252 21.2874L24.3791 21.0963L24.1554 20.9852L24.0184 20.7853L23.7765 20.692L23.6213 20.5454L23.466 20.3676L23.3063 20.1855L23.1054 20.0566L22.9502 19.87L22.7036 19.7856L22.5758 19.5767L22.4206 19.399L22.238 19.2479L22.0736 19.0747L21.891 18.9236L21.7038 18.7725L21.5349 18.6126L21.334 18.457L21.2199 18.2304L20.9825 18.1371L20.809 17.9816L20.6401 17.8128L20.4803 17.6395L20.3205 17.4662L20.1333 17.3196L19.9416 17.1774L19.7864 16.9774L19.5764 16.8752L19.4211 16.6886L19.234 16.542L19.0331 16.4087L18.8459 16.2621L18.7409 16.0355L18.5035 15.9199L18.362 15.7644L18.1976 15.6134L18.0333 15.449L17.8506 15.3068L17.6772 15.1113L17.5174 15.018Z" fill="black"/>
<path d="M32.8934 3.5812L32.6468 3.56787L32.4003 3.54565L32.1538 3.5812L31.9072 3.55898L31.6607 3.56343L31.4142 3.57231L31.1677 3.60342L30.9211 3.57231L30.6746 3.62563L30.4281 3.59009H30.1815L29.935 3.63452L29.6885 3.56343L29.4465 3.59897L29.1954 3.57231L28.9535 3.57676L28.7069 3.61675L28.4604 3.57231L28.2184 3.59009L27.9719 3.57676L27.7254 3.57231L27.4743 3.57676L27.2278 3.53232L26.9812 3.55454L26.7347 3.52344L26.4882 3.54565L26.2416 3.52788L25.9951 3.55898H25.7531L25.5066 3.57676L25.2601 3.57231L25.009 3.53232L24.7625 3.55898L24.5205 3.59009L24.274 3.54121L24.0274 3.53677L23.7809 3.54565L23.5344 3.5501L23.2879 3.60342L23.0413 3.55454L22.7994 3.59453L22.5939 3.64341L22.5391 3.84335L22.4752 4.06107L22.4433 4.28323L22.4296 4.5054L22.4067 4.72756L22.4615 4.95416L22.4204 5.18077L22.4067 5.41626L22.425 5.6562L22.4615 5.89169L22.4159 6.12718L22.4707 6.36712L22.4433 6.60261L22.4478 6.84254L22.4341 7.07804L22.4615 7.31797L22.4935 7.55346L22.4752 7.78896L22.4615 8.02889L22.457 8.26883L22.4935 8.50432L22.5391 8.73981L22.5346 8.98419L22.5574 9.22857L22.5254 9.47739L22.5346 9.71733L22.5665 9.9617V10.2061L22.603 10.4505L22.5894 10.6948L22.5665 10.9348L22.5802 11.1792L22.5437 11.4235V11.6635L22.5711 11.9078L22.5939 12.1522L22.603 12.3966L22.5483 12.641V12.8809L22.5939 13.1253L22.6122 13.3652L22.5757 13.6096L22.6213 13.854L22.6441 14.0939L22.6624 14.3339L22.6715 14.5782L22.7035 14.8182L22.7811 15.0048L23.0048 14.9559L23.1509 14.756L23.3518 14.6227L23.5207 14.4538L23.7307 14.325L23.9042 14.1606L24.0731 13.9873L24.2648 13.8407L24.4201 13.6585L24.5981 13.4985L24.8127 13.3786L24.9725 13.1964L25.1642 13.0498L25.324 12.872L25.502 12.7076L25.7121 12.5832L25.9129 12.4499L26.0818 12.2766L26.2645 12.1211L26.4471 11.9656L26.6297 11.8101L26.8169 11.659L26.9995 11.5035L27.2004 11.3658L27.351 11.1747L27.5519 11.037L27.7391 10.8859L27.8943 10.6948L28.0952 10.5615L28.2641 10.3883L28.4741 10.255L28.6613 10.1039L28.853 9.94837L29.063 9.81508L29.2319 9.64179L29.3917 9.45517L29.5926 9.31299L29.7889 9.16636L29.9761 9.01085L30.1724 8.86422L30.3459 8.69538L30.5376 8.54875L30.7248 8.39324L30.9029 8.22439L31.0855 8.06444L31.2544 7.89115L31.4553 7.75341L31.6516 7.61123L31.8114 7.42461L32.0077 7.28242L32.204 7.13135L32.3866 6.9714L32.5829 6.82477L32.7153 6.6115L32.939 6.50041L33.0988 6.3138L33.2768 6.1494L33.4503 5.98055L33.6421 5.83393L33.8201 5.66508L33.9845 5.48735L34.2036 5.36739L34.3634 5.18521L34.5323 5.01193L34.7195 4.85641L34.9021 4.7009L35.0756 4.53205L35.2491 4.36321L35.4226 4.19881L35.5687 4.00331L35.7467 3.84335L35.8061 3.66118L35.6326 3.56343L35.3815 3.57231L35.1349 3.60342L34.8884 3.55898L34.6373 3.54565L34.3908 3.59009L34.1443 3.57231L33.8932 3.59009L33.6421 3.55454L33.3955 3.59897L33.1445 3.60342L32.8934 3.5812Z" fill="black"/>
<path d="M12.6506 10.7926L12.7145 10.5616L12.7739 10.3261L12.6734 10.0906L12.7602 9.85512L12.7921 9.62407L12.6506 9.38414L12.7739 9.15309L12.7373 8.9176L12.7237 8.68211L12.7647 8.44661L12.6963 8.21112L12.6826 7.97563L12.7145 7.74014L12.7237 7.50909L12.7008 7.2736L12.7556 7.04255L12.8287 6.80706L12.783 6.57156L12.7191 6.33607L12.7602 6.10502L12.71 5.86953L12.856 5.63404L12.8241 5.39855L12.7921 5.16305L12.7876 4.92756L12.8834 4.69207L12.7237 4.45658L12.7921 4.22109L12.7328 3.98115L12.888 3.7501L12.7465 3.51017L12.7967 3.27467L12.7602 3.03918L12.8241 2.80369L12.7921 2.5682L12.7693 2.32826L12.8515 2.09721L12.8104 1.86172L12.9017 1.62623L12.9291 1.39518L12.8834 1.15524L12.9337 0.924196L12.8834 0.688703L12.8606 0.453211L12.8058 0.275481L12.6643 0.159957L12.4771 0L12.1256 0.146627L11.8836 0.142184L11.6371 0.102195L11.3951 0.119968L11.1806 0.266595L10.9523 0.333244L10.6784 0.257708L10.4547 0.359903L10.2447 0.479871L10.0347 0.604282L9.78813 0.644271L9.57812 0.759795L9.37268 0.88865L9.13985 0.964185L8.93897 1.09748L8.70157 1.16857L8.49613 1.29299L8.33634 1.49293L8.06242 1.50182L7.87524 1.65733L7.64697 1.7462L7.49175 1.94614L7.30457 2.09721L7.09913 2.22162L6.89825 2.35492L6.65629 2.43934L6.56042 2.69705L6.34128 2.80813L6.09475 2.88811L5.92127 3.05695L5.77061 3.25246L5.60626 3.43019L5.36886 3.53238L5.17712 3.68345L5.08581 3.93672L4.85297 4.0478L4.72058 4.25219L4.52883 4.4077L4.41927 4.63431L4.25035 4.80759L4.05404 4.95866L3.8349 5.08752L3.76642 5.34523L3.55641 5.48741L3.49706 5.74512L3.32358 5.91396L3.11814 6.06503L2.97205 6.26054L2.92183 6.5138L2.68443 6.65154L2.54747 6.84704L2.40138 7.04699L2.29637 7.26471L2.15485 7.46466L2.05898 7.68682L1.94941 7.90454L1.82614 8.10893L1.70288 8.31776L1.73027 8.59324L1.62983 8.8154L1.42439 8.98869L1.35591 9.21974L1.21439 9.42413L1.19612 9.67295L1.1733 9.92177L0.95416 10.0995L1.00894 10.3705L0.798937 10.5572L0.712196 10.7838L0.780676 11.0548L0.643715 11.2681L0.534147 11.4858L0.465666 11.7213L0.438274 11.9612L0.32414 12.1789L0.360663 12.4322L0.241964 12.6544L0.32414 12.9076L0.223703 13.1298L0.150657 13.3608L0.0867418 13.5963L0.114134 13.8363L0.0410882 14.0718L0.164353 14.3161L0.0502189 14.5516L0.0456536 14.7871L0.0502189 15.0271L0.0228268 15.267L0.0319575 15.5025L0.0547843 15.7424L0.0502189 15.9824L0.118699 16.2179L0 16.4578L0.136961 16.6888L0.155222 16.9288V17.1643L0.146091 17.4086V17.6486L0.191745 17.8841L0.251095 18.1151L0.333271 18.3462L0.342402 18.5861L0.287618 18.8349L0.346967 19.066L0.44284 19.297L0.506755 19.5281L0.424578 19.7858L0.598062 19.9946L0.502189 20.2612L0.625454 20.4834V20.7322L0.76698 20.9455L0.776111 21.1854L0.858287 21.412L0.922202 21.6431L1.01351 21.8697L1.13677 22.0785L1.18243 22.314L1.1733 22.5717L1.35591 22.7583L1.3833 23.0071L1.49287 23.2204L1.65722 23.407L1.75766 23.6247L1.78505 23.8736L1.8581 24.1046L1.98137 24.3135L2.17311 24.4823L2.25985 24.7089L2.32833 24.94L2.52464 25.1044L2.54747 25.3709L2.70269 25.5531L2.92639 25.6997V25.9752L3.07705 26.1618L3.21401 26.3751L3.46054 26.4507L3.68424 26.5129L3.91251 26.6506L4.15904 26.5484L4.401 26.5751L4.64753 26.584L4.89406 26.5528L5.14059 26.6417L5.38712 26.5662L5.62909 26.5351L5.87561 26.5217L6.12214 26.584L6.36411 26.5351L6.61064 26.6017L6.85717 26.5973L7.1037 26.5129L7.35023 26.6328L7.59675 26.5528L7.84328 26.5973L8.08525 26.5484L8.33178 26.6373L8.57831 26.5528H8.82484L9.07137 26.6595L9.31789 26.5706L9.55986 26.5884L9.80639 26.5084L10.0529 26.6195L10.2994 26.6506L10.546 26.6017L10.7925 26.5662L11.039 26.655L11.2856 26.5173L11.5321 26.5084L11.7786 26.5884L12.0297 26.5573L12.2762 26.6373L12.4634 26.4951L12.5639 26.3129V26.0774L12.6643 25.8419L12.573 25.5976L12.6689 25.3665L12.541 25.1221L12.678 24.8866L12.5547 24.6467L12.71 24.4112L12.5776 24.1713L12.7054 23.9358L12.6917 23.6958L12.605 23.4559L12.6689 23.2204L12.5913 22.9805L12.6232 22.7405L12.6141 22.5006L12.7145 22.2651L12.751 22.0252L12.7647 21.7852L12.7191 21.5453L12.7145 21.3098L12.7328 21.0699L12.7556 20.8299L12.7647 20.59L12.751 20.3501L12.7419 20.1101L12.6871 19.8702L12.6643 19.6303L12.6963 19.3903L12.6643 19.146L12.646 18.906L12.7739 18.6661L12.7282 18.4261L12.7921 18.1862L12.7191 17.9463L12.6552 17.7063L12.7465 17.4664L12.6963 17.2265L12.646 16.9865L12.7602 16.7466L12.71 16.5067L12.6734 16.2667L12.6415 16.0268L12.7967 15.7869L12.7191 15.5469L12.7328 15.307L12.6689 15.0715L12.6506 14.8316L12.6871 14.5916L12.6734 14.3517L12.783 14.1162L12.7008 13.8763L12.7282 13.6408L12.7008 13.4008L12.646 13.1653L12.7191 12.9254L12.6323 12.6899L12.7191 12.45L12.6552 12.2145L12.7556 11.979L12.7054 11.7391L12.6734 11.5036L12.7008 11.2681L12.6871 11.0281L12.6506 10.7926Z" fill="black"/>
<path d="M187.919 28.3037V27.9261C190.093 27.7217 190.403 27.5217 190.403 25.9266V10.3264C190.403 8.73123 190.093 8.53128 187.919 8.3269V7.94922H204.702L204.857 13.17H204.546C203.117 9.39772 201.661 8.50018 198.899 8.50018H194.968V17.52H197.981C200.091 17.52 200.62 16.3292 200.839 14.4764H201.214V21.1146H200.839C200.62 19.2573 200.095 18.0709 197.981 18.0709H194.968V25.8155C194.968 27.3795 194.85 27.7572 196.772 27.7572H199.392C201.908 27.7572 203.985 26.1621 205.66 22.1898H206.003L204.98 28.3082H187.919V28.3037Z" fill="black"/>
<path d="M217.517 25.9266C217.517 27.5217 217.795 27.7261 220 27.9261V28.3037H210.468V27.9261C212.641 27.7217 212.951 27.5217 212.951 25.9266V10.3264C212.951 8.73123 212.641 8.53128 210.468 8.32689V7.94922H220V8.32689C217.795 8.53128 217.517 8.73123 217.517 10.3264V25.9266Z" fill="black"/>
<path d="M169.174 25.9266C169.174 27.5217 169.452 27.7261 171.657 27.9261V28.3037H162.125V27.9261C164.298 27.7217 164.609 27.5217 164.609 25.9266V10.3264C164.609 8.73123 164.298 8.53128 162.125 8.32689V7.94922H171.657V8.32689C169.452 8.53128 169.174 8.73123 169.174 10.3264V25.9266Z" fill="black"/>
<path d="M170.356 18.0709L178.793 10.3575C179.254 9.92202 179.547 9.51769 179.547 9.14001C179.547 8.58905 178.825 8.44242 176.46 8.3269V7.94922H184.075V8.3269C182.5 8.358 181.578 8.8201 180.4 9.86426L174.159 15.4894L181.386 24.5847C182.797 26.3532 184.404 27.9305 185.751 27.9305V28.3082H178.825C177.807 27.5839 176.46 25.8999 174.753 23.6117L170.356 18.0709Z" fill="black"/>
<path d="M66.7867 11.1795L60.5094 28.3882H59.893L52.8441 11.1795L51.0819 25.6467C50.8673 27.5262 51.6708 27.7839 54.2366 27.9305V28.3037H47.562V27.9305C49.2923 27.8416 50.1277 27.5262 50.283 26.1976L52.2324 10.5485C52.2324 9.10447 51.5202 8.49574 49.4795 8.41132V8.03809H56.5558C56.6197 8.70457 56.8023 9.16667 57.0488 9.79761L62.0844 22.2432L66.5676 9.77095C66.7822 9.10447 66.9694 8.70457 67.0333 8.03809H73.9589V8.41132C71.7949 8.50018 71.238 9.10447 71.238 10.5485L73.1828 26.1976C73.338 27.5839 73.927 27.8461 75.7166 27.9305V28.3037H65.8554V27.9305C68.2979 27.815 68.7909 27.4951 68.5444 25.389L66.7867 11.1795Z" fill="black"/>
<path d="M89.6453 25.6377C89.6453 26.5219 90.0973 26.9351 90.8551 26.9351C91.2204 26.9351 91.5582 26.8551 91.8367 26.7262L91.8915 26.8551C91.1884 27.8682 89.9832 28.5435 88.6592 28.5435C87.1435 28.5435 86.0752 27.6593 85.8196 26.3619C84.9202 27.4016 83.3771 28.4902 81.4642 28.4902C79.355 28.4902 77.6704 27.2417 77.6704 25.22C77.6704 23.2205 79.387 22.1275 81.7975 21.3766L85.7876 20.1014V17.4799C85.7876 15.8447 85.2261 14.6984 83.7652 14.6984C82.4184 14.6984 81.8294 15.7381 81.8294 17.191C81.8294 17.7642 81.9436 18.4929 82.1079 18.9861L79.7202 19.2705C79.0172 19.0883 78.4557 18.4396 78.4557 17.6087C78.4557 15.5559 81.1812 14.2852 84.1304 14.2852C87.6685 14.2852 89.6362 15.507 89.6362 18.5462V25.6377H89.6453ZM85.7967 26.1042V20.4924L83.4638 21.3499C82.1445 21.8431 81.414 22.6251 81.414 24.1847C81.414 25.7709 82.3134 26.8329 83.7469 26.8329C84.4773 26.8329 85.1758 26.6507 85.7967 26.1042Z" fill="black"/>
<path d="M99.8169 26.8819C99.8169 27.8149 100.324 27.9216 101.616 27.9971V28.3081H94.0874V27.9971C95.4068 27.9216 95.9135 27.8149 95.9135 26.8819V16.9601L94.1741 15.8182V15.716L99.7074 14.2853H99.8215V26.8819H99.8169ZM95.5483 10.6729C95.5483 9.55764 96.4477 8.62012 97.8219 8.62012C99.1687 8.62012 100.095 9.55764 100.095 10.6729C100.095 11.7615 99.1687 12.7257 97.8219 12.7257C96.4477 12.7257 95.5483 11.7615 95.5483 10.6729Z" fill="black"/>
<path d="M104.67 27.2728L104.501 23.4294H104.752C105.423 26.1842 107.363 28.1836 109.779 28.1836C111.354 28.1836 112.559 27.2728 112.559 25.7176C112.559 22.1586 104.752 23.536 104.752 18.5729C104.752 15.9469 107.254 14.2852 110.171 14.2852C111.915 14.2852 113.317 14.725 114.499 15.4271V18.724H114.248C113.91 16.8 112.28 14.6717 110.062 14.6717C108.546 14.6717 107.56 15.5559 107.56 16.88C107.56 20.4124 115.481 19.0083 115.481 24.0514C115.481 26.8062 112.979 28.5702 109.664 28.5702C107.761 28.5746 105.793 28.0548 104.67 27.2728Z" fill="black"/>
<path d="M132.807 21.1455C132.807 25.5621 129.606 28.5746 125.502 28.5746C121.261 28.5746 118.312 25.7176 118.312 21.7409C118.312 17.3243 121.516 14.2852 125.616 14.2852C129.83 14.2852 132.807 17.1422 132.807 21.1455ZM128.675 22.1053C128.675 17.9731 127.666 14.6495 125.475 14.6495C123.425 14.6495 122.439 17.04 122.439 20.7545C122.439 24.8867 123.42 28.2103 125.643 28.2103C127.693 28.2103 128.675 25.8198 128.675 22.1053Z" fill="black"/>
<path d="M145.818 18.7506C145.818 17.1377 145.174 16.3335 143.544 16.3335C142.448 16.3335 141.38 16.6978 140.54 17.2177V26.8818C140.54 27.8148 141.047 27.9215 142.339 27.997V28.308H134.811V27.997C136.13 27.9215 136.637 27.8148 136.637 26.8818V16.96L134.893 15.8181V15.7159L140.54 14.2852H140.654L140.54 17.0133C141.549 15.8181 143.462 14.2852 145.74 14.2852C148.379 14.2852 149.73 15.8181 149.73 18.5196V26.8818C149.73 27.8148 150.264 27.9215 151.556 27.997V28.308H144.028V27.997C145.32 27.9215 145.827 27.8148 145.827 26.8818V18.7506H145.818Z" fill="black"/>
</svg>
