<?xml version="1.0" encoding="utf-8"?>
<!-- Generator: Adobe Illustrator 16.0.0, SVG Export Plug-In . SVG Version: 6.00 Build 0)  -->
<!DOCTYPE svg PUBLIC "-//W3C//DTD SVG 1.1//EN" "http://www.w3.org/Graphics/SVG/1.1/DTD/svg11.dtd">
<svg version="1.1" id="レイヤー_1" xmlns="http://www.w3.org/2000/svg" xmlns:xlink="http://www.w3.org/1999/xlink" x="0px"
	 y="0px" width="135.55px" height="20.905px" viewBox="0 0 135.55 20.905" enable-background="new 0 0 135.55 20.905"
	 xml:space="preserve">
<path d="M10.845,3.503c0.096-0.12,0.24-0.215,0.336-0.288c0.097-0.047,0.216-0.072,0.36-0.072c0.792,0,4.105,1.393,4.105,2.4
	c0,0.384-0.384,0.696-0.648,0.96c-0.192,0.168-0.36,0.336-0.457,0.577C10.198,18.649,0.764,20.233,0.117,20.233
	c-0.073,0-0.12-0.023-0.145-0.023c-0.023-0.024,0.12-0.145,0.433-0.265C7.796,17.256,11.278,6.48,11.278,5.832
	c0-0.241-0.337-0.48-0.553-0.48c-0.527,0-3.311,0.96-5.76,2.04C4.077,7.8,3.741,7.944,3.356,7.944c-0.721,0-2.784-1.512-2.784-2.088
	c0-0.265,0.168-0.864,0.815-1.2l0.145-0.072c0.023-0.025,0.072-0.025,0.095-0.025c0.025,0,0.048,0,0.048,0.025l0.025,0.047
	l0.023,0.024c0.36,0.576,0.984,0.72,1.633,0.72c0.767,0,1.271-0.096,6.528-1.249c0.24-0.072,0.456-0.167,0.696-0.383L10.845,3.503z
	 M16.102,4.08c-1.128,0-2.04-0.912-2.04-2.04c0-1.128,0.912-2.04,2.04-2.04s2.04,0.912,2.04,2.04
	C18.142,3.168,17.229,4.08,16.102,4.08 M16.102,0.647c-0.769,0-1.368,0.624-1.368,1.393c0,0.767,0.599,1.368,1.368,1.368
	c0.768,0,1.392-0.601,1.392-1.368C17.494,1.271,16.87,0.647,16.102,0.647"/>
<path d="M36.861,17.544c-0.408,0-0.816-0.022-1.2-0.022c-2.448,0-4.345,0.19-5.929,0.311h-0.048c-0.144,0-0.312-0.072-0.456-0.168
	c-0.047,0.672-0.408,1.441-1.295,1.441c-0.265,0-0.577-0.097-0.792-0.361c-0.409-0.456-1.057-2.232-1.057-2.784
	c0-0.336,0.072-0.552,0.144-0.792c0.121-0.48,0.144-0.648,0.144-0.984c0-6.528-1.392-6.959-2.328-6.959
	c-0.048-0.025-0.096-0.048-0.096-0.073c0-0.145,0.96-1.032,1.536-1.032c0.696,0,2.16,0.672,2.688,1.248
	c0.408,0.073,0.841,0.12,1.249,0.12c0.311,0,0.624-0.024,0.84-0.072c3.912-0.599,3.936-0.624,4.463-1.008
	c0.025-0.024,0.048-0.072,0.097-0.095c0.407-0.409,0.504-0.456,0.744-0.456c1.056,0,3.984,1.511,3.984,2.28
	c0,0.336-0.312,0.6-0.552,0.815c-0.528,0.456-0.624,0.697-1.776,6.025c-0.048,0.215-0.096,0.407-0.12,0.6
	c0.528,0.191,0.936,0.479,0.936,1.033c0,0.576-0.576,0.935-1.128,0.935H36.861z M28.412,8.88c0.168,1.775,0.504,4.968,0.672,7.008
	c0.265,0.024,0.528,0.024,0.744,0.024c0.36,0,3.289-0.336,4.825-0.48c0.287-1.871,0.72-5.832,0.743-6.648
	c0-0.312-0.311-0.504-0.456-0.504c-0.455,0.024-1.223,0.168-2.04,0.312C29.78,9.24,29.708,9.24,29.612,9.24
	c-0.263,0-0.504-0.047-0.792-0.191L28.412,8.88z"/>
<path d="M58.845,3.503c0.096-0.12,0.24-0.216,0.336-0.288c0.097-0.048,0.216-0.072,0.36-0.072c0.792,0,4.105,1.392,4.105,2.4
	c0,0.384-0.384,0.696-0.649,0.96c-0.191,0.168-0.359,0.336-0.456,0.576c-4.343,11.569-13.777,13.153-14.425,13.153
	c-0.072,0-0.12-0.024-0.144-0.024c-0.023-0.022,0.12-0.144,0.433-0.265C55.797,17.256,59.278,6.48,59.278,5.832
	c0-0.24-0.337-0.479-0.553-0.479c-0.527,0-3.312,0.96-5.76,2.04c-0.889,0.408-1.224,0.551-1.608,0.551
	c-0.721,0-2.784-1.511-2.784-2.087c0-0.265,0.168-0.865,0.815-1.201l0.144-0.072C49.58,4.56,49.604,4.56,49.628,4.56
	c0.048,0,0.072,0.024,0.096,0.096c0.36,0.577,0.984,0.72,1.633,0.72c0.792,0,1.488-0.143,6.528-1.248
	c0.24-0.072,0.456-0.168,0.696-0.384L58.845,3.503z"/>
<path d="M68.563,17.161c-0.096,0-0.145-0.023-0.145-0.072c0-0.072,0.145-0.216,0.433-0.336c2.593-1.224,7.681-6.624,7.681-8.328
	c0-0.313-0.191-0.553-0.552-0.697c-0.168-0.072-0.239-0.12-0.239-0.192c0-0.072,0.575-0.6,1.271-0.6
	c0.863,0,2.615,1.392,2.615,2.016c0,0.192-0.094,0.408-0.359,0.624c-0.096,0.097-0.288,0.192-0.359,0.288
	c-0.673,0.817-1.367,1.561-2.064,2.257c0.24,0.19,0.455,0.359,0.455,0.647c0,0.192-0.071,0.408-0.119,0.648
	c-0.024,0.336-0.049,1.176-0.049,2.112s0.024,1.944,0.074,2.64c0.022,0.264,0.094,0.864,0.094,1.248
	c0,0.336-0.094,1.488-1.104,1.488c-0.624,0-1.32-1.92-1.32-2.52c0-0.192,0.049-0.36,0.097-0.504
	c0.216-0.601,0.288-1.992,0.288-3.193c0-0.407,0-0.792-0.024-1.104C71.923,16.321,68.997,17.161,68.563,17.161"/>
<path d="M104.949,10.344c1.752,0,4.368,0.216,4.368,1.176c0,0.816-2.064,1.2-3.145,1.2c-1.127-0.024-2.184-0.048-3.216-0.048
	c-2.473,0-4.705,0.096-6.889,0.359c-0.647,0.072-1.345,0.408-2.017,0.408c-1.224,0-3.576-1.848-3.576-3.072
	c0-0.168,0.048-0.335,0.145-0.456l0.217-0.288c0.047-0.071,0.094-0.095,0.119-0.095c0.049,0,0.071,0.024,0.096,0.12
	c0.024,0.048,0.072,0.144,0.096,0.24c0.361,0.768,2.881,0.935,3.841,0.935c3.696-0.071,6.889-0.479,9.721-0.479H104.949z"/>
<path d="M114.092,19.704c3.937-1.752,5.736-7.92,5.736-10.128c0-0.6-0.479-1.08-0.983-1.08H118.7
	c-0.12,0.024-0.217,0.048-0.264,0.048c-0.072,0-0.121-0.023-0.121-0.071c0-0.265,1.104-1.345,1.896-1.345
	c1.08,0,2.977,1.513,2.977,2.089c0,0.12-0.047,0.216-0.121,0.336c-0.07,0.144-0.19,0.288-0.311,0.432
	c-0.098,0.144-0.216,0.312-0.266,0.504c-1.03,3.36-2.711,7.609-8.159,9.432c-0.144,0.049-0.288,0.072-0.384,0.072
	c-0.049,0-0.096,0-0.12-0.023c0,0-0.024-0.023-0.024-0.049c0-0.023,0.024-0.048,0.049-0.096L114.092,19.704z M126.669,17.928
	c-0.938,0-3.191-2.062-3.191-2.809c0-0.144,0.023-0.287,0.071-0.383c0.12-0.168,0.408-0.553,0.433-0.721
	c0.166-1.104,0.312-2.736,0.312-4.488c0-2.256-0.12-3.624-1.08-3.624h-0.097l-0.071,0.023h-0.072c-0.073,0-0.145-0.023-0.145-0.096
	c0-0.312,1.032-1.272,1.681-1.272c0.528,0,2.736,1.032,2.736,1.729c0,0.264-0.192,0.529-0.336,0.84
	c-0.096,0.193-0.168,0.385-0.192,0.601c-0.096,0.72-0.312,3.673-0.312,5.856c0,0.408,0,0.744,0.384,0.744
	c0.504,0,6.313-3.816,8.28-7.176c0.217-0.384,0.408-0.577,0.455-0.552c0.025,0.023,0.025,0.048,0.025,0.096
	c0,0.696-2.04,6.121-7.369,10.128c-0.48,0.36-0.744,0.984-1.416,1.104H126.669z"/>
</svg>
