<?xml version="1.0" encoding="utf-8"?>
<!-- Generator: Adobe Illustrator 16.0.0, SVG Export Plug-In . SVG Version: 6.00 Build 0)  -->
<!DOCTYPE svg PUBLIC "-//W3C//DTD SVG 1.1//EN" "http://www.w3.org/Graphics/SVG/1.1/DTD/svg11.dtd">
<svg version="1.1" id="レイヤー_1" xmlns="http://www.w3.org/2000/svg" xmlns:xlink="http://www.w3.org/1999/xlink" x="0px"
	 y="0px" width="69.122px" height="21.985px" viewBox="0 0 69.122 21.985" enable-background="new 0 0 69.122 21.985"
	 xml:space="preserve">
<path d="M18.746,20.857c0,0.48-0.912,0.816-1.969,0.816c-0.647,0-1.248-0.265-1.248-0.792v-0.024
	c0.025-0.216,0.025-0.768,0.048-1.392c-1.752-0.024-4.248-0.024-6.864-0.024c-1.897,0-3.864,0-5.593,0.024
	c0,0.696,0.024,1.319,0.024,1.368c0,0.575-1.175,0.84-1.967,0.84C0.576,21.673,0,21.433,0,20.953v-0.096
	c0.048-0.312,0.192-4.512,0.192-5.977c0-0.551-0.024-1.032-0.024-1.295c0-0.385,0-0.649-0.048-1.008
	c-0.024-0.217-0.048-0.337-0.048-0.408c0-0.121,0.072-0.121,0.456-0.121h0.168c0.672,0,3.193,0.096,3.193,0.792
	c0,0.192-0.193,0.409-0.745,0.577c-0.024,0.671-0.047,3.527-0.047,4.199c0,0.217,0,0.744,0.023,1.297h4.681V9.625H4.08l0.024,0.551
	c0,0.577-1.175,0.84-1.967,0.84c-0.601,0-1.177-0.24-1.177-0.72v-0.095C1.032,9.72,1.152,6.024,1.152,5.136
	c0-0.456-0.024-0.864-0.024-1.129c0-0.383,0-0.647-0.048-1.007C1.057,2.784,1.032,2.664,1.032,2.591c0-0.12,0.072-0.12,0.456-0.12
	h0.168c0.672,0,3.193,0.097,3.193,0.792c0,0.193-0.193,0.408-0.745,0.576C4.08,4.511,4.057,6.768,4.057,7.44
	c0,0.313,0.023,1.008,0.023,1.632h3.721c0-6.576,0-6.984-0.12-7.969C7.657,0.839,7.608,0.696,7.608,0.624
	c0-0.096,0.097-0.096,0.889-0.096c1.103,0,3.264,0.287,3.264,0.863c0,0.193-0.24,0.433-0.888,0.624
	c-0.024,0.217-0.048,3.457-0.048,7.057h3.792c0-0.552,0.025-1.2,0.048-1.656c0.024-0.552,0.024-1.2,0.024-1.825
	c0-0.719,0-1.872-0.047-2.591c-0.025-0.216-0.073-0.336-0.073-0.432c0-0.097,0.096-0.097,0.456-0.097h0.145
	c0.888,0,3.216,0.168,3.216,0.817c0,0.192-0.193,0.408-0.72,0.576c-0.024,0.288-0.024,0.72-0.024,1.176
	c0,0.528,0.095,4.68,0.12,5.136v0.025c0,0.575-1.224,0.815-1.945,0.815c-0.647,0-1.248-0.263-1.248-0.792v-0.023
	c0-0.12,0.025-0.313,0.025-0.576h-3.769c-0.024,3.912-0.024,8.087-0.024,9.289h4.776c0.072-1.465,0.072-2.473,0.072-3.457
	s0-2.184-0.048-2.879c-0.024-0.217-0.072-0.337-0.072-0.434c0-0.096,0.097-0.096,0.456-0.096h0.145c0.887,0,3.216,0.168,3.216,0.816
	c0,0.191-0.192,0.408-0.72,0.576c-0.025,0.287-0.025,0.743-0.025,1.271c0,0.576,0.025,3.744,0.145,6.121V20.857z"/>
<path d="M32.761,10.297c-0.936,0-2.16,0-3.864,0.191c-0.12-0.071-0.384-0.504-0.432-0.815c-3.385,2.784-6.001,3.456-6.049,3.456
	c-0.024,0-0.048-0.024-0.048-0.024c0-0.048,0.168-0.191,0.576-0.479c4.225-3,7.681-9.337,8.329-12.266C31.321,0,31.249,0,31.513,0
	c0.624,0.023,4.08,0.887,4.08,1.608c0,0.119-0.071,0.239-0.265,0.336c2.041,3.24,7.25,6.408,10.226,7.464
	c0.218,0.072,0.386,0.097,0.386,0.145c0,0.023-0.121,0.073-0.434,0.168c-0.359,0.096-2.352,0.529-3.048,1.08
	c-0.312,0.264-0.673,0.409-1.032,0.409c-1.393,0-5.496-3.721-6.408-9.169c-0.145,0.024-0.312,0.024-0.481,0.024
	c-0.912,2.256-3.12,5.16-5.952,7.512c1.44,0.169,3.216,0.192,4.105,0.192h1.296c0.456-0.672,1.2-1.728,1.631-2.064
	c0.048-0.023,0.119-0.048,0.168-0.048c0.648,0,2.761,2.017,2.761,2.376c0,0.217-0.312,0.288-0.479,0.288L32.761,10.297z
	 M34.465,13.945c0.216,0.071,0.336,0.191,0.336,0.336c0,0.191-0.312,0.432-0.96,0.527c-0.696,1.177-1.584,2.353-2.568,3.361
	c2.64-0.121,4.993-0.36,6.409-0.528c-0.312-0.601-0.744-1.128-1.441-1.704c-0.191-0.145-0.336-0.217-0.336-0.264
	c0-0.024,0.049-0.024,0.097-0.024c0.433,0,6.169,0.864,6.169,4.08c0,1.056-0.768,1.968-1.752,1.968
	c-0.674,0-1.297-0.384-1.633-1.271c-0.336-0.864-0.551-1.561-0.793-2.16c-2.135,0.744-6.503,2.232-10.705,3
	c-0.048,0.432-0.239,0.72-0.479,0.72c-0.624,0-1.752-3.022-1.752-3.624c0-0.096,0.023-0.096,0.168-0.096h0.336
	c0.599,0,1.2,0.023,1.8,0.023c0.839,0,1.704-0.023,2.543-0.048c0.025-0.12,0.361-1.752,0.361-3.624c0-0.336-0.024-0.48-0.048-0.648
	c-1.488,0.024-3.769,0.072-5.017,0.216c-0.143-0.095-0.504-0.599-0.504-1.056c2.017,0.24,7.273,0.289,7.273,0.289h6.191
	c0.481-0.697,1.682-2.329,1.922-2.329c0.504,0,3.096,1.967,3.096,2.568c0,0.24-0.312,0.312-0.48,0.312L34.465,13.945z"/>
<path d="M52.513,9.144c-0.024,0.361-0.048,0.744-0.048,1.153c0,4.248,1.872,5.616,3.145,5.616c1.199,0,1.487-0.504,3.383-4.415
	c0.193-0.409,0.312-0.554,0.361-0.554c0.023,0,0.049,0.049,0.049,0.145c0,0.143-0.025,0.36-0.074,0.577
	c-0.168,0.935-0.336,2.039-0.336,3.047c0,0.912,0.121,1.561,0.433,2.209c0.071,0.119,0.097,0.264,0.097,0.384
	c0,0.312-0.287,1.369-2.137,1.369c-1.104,0-2.137-0.361-3.048-0.841c-2.929-1.537-3.961-4.992-4.249-8.186
	c-0.071-0.767-0.264-2.664-0.84-3.096c-0.072-0.048-0.24-0.12-0.288-0.216V6.312c0-0.192,0.624-0.24,0.624-0.24
	c0.96,0,2.929,1.344,2.929,2.88V9.144z M66.554,13.153c-0.647-0.385-1.92-0.479-3-0.479c-0.479,0-0.937,0.023-1.248,0.047
	c-0.097,0-0.168,0.024-0.239,0.024c-0.121,0-0.168-0.024-0.168-0.071c0-0.049,0.215-0.168,0.359-0.241
	c2.902-1.128,3.456-1.343,3.456-1.896c0-0.912-1.416-2.688-2.832-2.833c-0.479-0.048-0.624-0.12-0.624-0.191
	c0-0.096,0.6-0.336,1.464-0.336c2.04,0,4.248,1.439,5.231,3.289c0.097,0.215,0.168,0.576,0.168,0.912
	c0,0.191-0.023,2.088-1.439,2.088C67.298,13.464,66.89,13.344,66.554,13.153"/>
</svg>
