<svg xmlns="http://www.w3.org/2000/svg" viewBox="0 0 502.54 545"><defs><style>.cls-1,.cls-2,.cls-29,.cls-3,.cls-4,.cls-5{fill:none;}.cls-1,.cls-12,.cls-2,.cls-29,.cls-3,.cls-30,.cls-4,.cls-5{stroke:#000;stroke-miterlimit:10;}.cls-1{stroke-width:1.42px;}.cls-2{stroke-width:1.87px;}.cls-3{stroke-width:4.25px;}.cls-4{stroke-width:2.13px;}.cls-5{stroke-width:0.43px;}.cls-6{fill:#ccc;}.cls-10,.cls-11,.cls-18,.cls-27,.cls-28,.cls-35,.cls-36,.cls-38,.cls-7,.cls-9{font-size:9.92px;}.cls-10,.cls-11,.cls-18,.cls-27,.cls-28,.cls-31,.cls-33,.cls-35,.cls-36,.cls-38,.cls-40,.cls-41,.cls-7,.cls-9{font-family:ATC-6e3830b42b416b7a6947726f204c-83pv-RKSJ-H, ATC-6e3830b42b416b7a6947726f204c;}.cls-36,.cls-39,.cls-7{letter-spacing:0.08em;}.cls-10,.cls-8{letter-spacing:0.2em;}.cls-9{letter-spacing:0.07em;}.cls-11,.cls-37{letter-spacing:0.19em;}.cls-12,.cls-30,.cls-36{fill:#fff;}.cls-12{stroke-width:0.35px;}.cls-13{letter-spacing:0.09em;}.cls-14{letter-spacing:-0.03em;}.cls-15{letter-spacing:-0.06em;}.cls-16{letter-spacing:0em;}.cls-17{letter-spacing:0.05em;}.cls-18{letter-spacing:-0.14em;}.cls-19{letter-spacing:-0.07em;}.cls-20{letter-spacing:0.01em;}.cls-21{letter-spacing:0.04em;}.cls-22{letter-spacing:0.06em;}.cls-23{letter-spacing:0.02em;}.cls-24{letter-spacing:0.03em;}.cls-25{letter-spacing:0.06em;}.cls-26{letter-spacing:0.04em;}.cls-27{letter-spacing:0.05em;}.cls-28{letter-spacing:0.1em;}.cls-29,.cls-30{stroke-width:0.28px;}.cls-31,.cls-33{font-size:7.44px;}.cls-31{letter-spacing:-0.04em;}.cls-32{letter-spacing:0.02em;}.cls-33{letter-spacing:0.02em;}.cls-34{letter-spacing:-0.05em;}.cls-35{letter-spacing:0.12em;}.cls-38{letter-spacing:0.06em;}.cls-40,.cls-41{font-size:9.92px;}.cls-40{letter-spacing:0.07em;}.cls-41{letter-spacing:0.07em;}</style></defs><g id="design"><path class="cls-1" d="M330,395.84h7c7.6,0,12.64,4,20.77,10L394,432.23a21.36,21.36,0,0,0,7,3.88c15.12,5.13,60.48,20.57,60.48,20.57"/><path class="cls-2" d="M193.36,480.9s9.45,16.29,12.52,21.3c1.91,3.1,2.41,4.38,6.81,4.38l79.08,1.73a59.24,59.24,0,0,1,13.69,2c4.94,1.3,16.54,6.9,20.52,9.05,7.53,4.07,7.44,5.52,6.75,13.28-.1,1.14-.6,8.08-.69,9.22-.6,7.91.74,9.26,4.47,15.7l63.7,110.66"/><path class="cls-3" d="M-261,423.05l236.33-40.93c6.67-1.15,16.43-3.32,23-4.85,52.94-12.34,133.21-46.28,147-52,6.59-2.74,12.49-3.16,19.08,1.53,2.53,1.81,15.62,12.9,34,9.95A43.67,43.67,0,0,0,215,330.17c6.38-4.19,11.28-10.58,14.27-19.13,2.61-7.44,3.62-23.77,18.91-34.11C295.7,244.73,428,151.69,428,151.69a154.68,154.68,0,0,0,18.16-14.84L576.6-15.23"/><path class="cls-4" d="M202.9,127,62.43,111.8A16.61,16.61,0,0,1,53,107.52L39.53,95.17"/><path class="cls-3" d="M25.9-22.17l63,188.79a69.22,69.22,0,0,1,3.2,15l8.32,84.83a73,73,0,0,1,.13,12.8l-4.32,55.3a71.46,71.46,0,0,0,2.13,23.7L151.14,559a17.19,17.19,0,0,0,9.55,11.29l74.25,33.45a18.81,18.81,0,0,1,4.8,3.13l68.62,61.35"/><path class="cls-3" d="M48.58-136.73,190.71,100.08l139,307a15,15,0,0,1,.48,11.21L288.46,536.43A15.27,15.27,0,0,0,289.53,549l69.9,125.17"/><path class="cls-3" d="M-119.33,203.88,39.8,472a23,23,0,0,0,19.77,11.26H184.65a32,32,0,0,0,17.75-5.39l121.69-81.46L522.85,240.62"/><polyline class="cls-3" points="-43.47 331.69 91.37 173.94 190.71 100.08"/><path class="cls-1" d="M158.56,324.14l-5.39,28.07c-1.66,8.66-2.13,10.24.24,17,0,0,12.32,32.3,16.07,43.31a17.88,17.88,0,0,1,1.09,6.84V443.6c0,5.88.27,6.21,2.42,11.69l10.95,27.95"/><path class="cls-1" d="M321-41l42.55,86.28a15.16,15.16,0,0,1,1,10.91l-5.37,18.46a23,23,0,0,0-.84,8.33l.76,9.31a22.31,22.31,0,0,0,6,13.46l23.48,24.94a9.58,9.58,0,0,1,2.5,5.14L433.93,418a13.68,13.68,0,0,0,3.45,7.2l20.7,22.52a12.87,12.87,0,0,1,3.41,8.62l.29,34.56"/><path class="cls-1" d="M425.07,359.79l-25.24,68.36c-2,5.36-2.49,6.2-2.49,11.18V476"/><path class="cls-5" d="M170.45,483.24l11.81,41.27a8.45,8.45,0,0,0,5.68,5.76L253.31,550a14.13,14.13,0,0,1,5.18,2.84L279.57,571a6.91,6.91,0,0,0,6.66,1.33l13.83-4.54"/><path class="cls-6" d="M508.25,36.61c-.52.61-52.06,61.54-68.87,80.5-1.86,2.09-3.18,3.62-4.2,4.82-3.2,3.71-3.2,3.71-9.77,8.75l-1.05.8c-14.15,10.85-41.44,29.79-67.83,48.1-20,13.84-38.81,26.92-50.27,35.33-.75.55-2.19,1.54-4,2.78-6.48.31-11.67,2.28-16.26,4.06s-8.27,3.19-12.21,2.71c-5.06-.61-7.51-3.58-10.36-7a29.88,29.88,0,0,0-7.57-7.11c-6.3-3.77-10.56-1.87-10.76-1.78l1.74,3.85c.12,0,2.52-1,6.83,1.58,2.71,1.61,4.54,3.83,6.49,6.17,3.14,3.79,6.38,7.71,13.12,8.52a17.7,17.7,0,0,0,2,.12c4.2,0,8.1-1.51,12.21-3.09,1.9-.73,3.84-1.47,5.87-2.11-5.29,3.5-10.52,6.92-12.31,8a971.15,971.15,0,0,1-95.38,52.1c-1.93-.21-3.85-.34-5.72-.42a49.76,49.76,0,0,1-35.35-16.91,36,36,0,0,0-9.27-8.43c-9.63-5.88-20.67-5.62-31.38-4.45l.4,4.23c10.28-1,20.25-1.35,28.77,3.85a30.33,30.33,0,0,1,7.09,6.18h0c.32.39.67.81,1.07,1.27,5.07,6.35,8.89,14.64,12.4,22.23,1,2.08,1.9,4.12,2.85,6.08l-1.79.82-.46-.89c-5.84-11.35-11.89-23.08-23.21-27.27-8.42-3.12-18.54-2.29-24-1.85l-1.52.12.3,4.21c.45,0,1,0,1.57-.09.91-.07,2-.16,3.14-.23h0c16.75.62,23.85,9.91,24.9,18.4s-2.61,14.73-6.82,19.42c-6.86,2.9-19.68,7.89-24.37,9.67l-10.14,3.88C70.9,332.48,35.75,346,15.63,351c-3.19.81-6.65,1.73-10.32,2.71-6.46,1.72-13.14,3.5-18.73,4.73-25.41,5.56-101.95,17-102.72,17.08l1.75,11.77c3.16-.47,77.71-11.58,103.51-17.22C-5,368.8,1.79,367,8.38,365.22c3.62-1,7-1.88,10.16-2.66,20.8-5.24,56.36-18.87,79.89-27.88l10.11-3.87c4.32-1.64,22.33-8.63,28.11-11.28q6.3-2.89,12.92-5.9l7.12-3.25c8.48,13,20.89,21.05,33.87,21.63l1.63,0a31,31,0,0,0,28.41-17.57,37.13,37.13,0,0,0,3-9.65,23.48,23.48,0,0,1,1.19-4.54c2.22,4.29,6.91,8.72,16.78,9.19.33,0,.65,0,1,0,7.71,0,18-4.14,31.54-12.62L272.24,293c-13.34,8.44-23.6,12.57-30.5,12.22-7.39-.35-11.93-3.1-13.87-8.4-3.05-8.31,2.24-19.22,15.13-29.09,14.14-7.77,28.94-16.37,44.37-26,3.84-2.39,22.22-14.49,25.94-17.22,11.33-8.32,30.11-21.35,50-35.15,26.51-18.39,53.92-37.41,68.3-48.43l1-.8c7.12-5.46,7.55-5.79,11.55-10.44,1-1.16,2.28-2.65,4.08-4.68,16.91-19.07,68.54-80.1,69.06-80.71ZM144.64,302.79l-8.21,3.75a26.21,26.21,0,0,0,3.29-16.47,23.44,23.44,0,0,0-8.59-15.41c8.82,4.1,14,14.06,19.38,24.57l.37.72Zm53.79-12c7.64,2.88,11.83,7.63,12.46,14.23.33,3.48-1.25,7.23-4.34,10.29a21.17,21.17,0,0,1-17.07,5.63c-7.47-.8-13.89-3.53-22.8-14.62-.1-.12-.19-.26-.28-.39C176.51,301.28,187.2,296.27,198.43,290.79Zm-40.88-1.29c-1.63-3.53-3.32-7.2-5.19-10.79a53.08,53.08,0,0,0,25.52,8.74q-9,4.24-17.47,8.13C159.46,293.63,158.51,291.59,157.55,289.5ZM223,294.62a22.59,22.59,0,0,0-3.58,9.4,33.27,33.27,0,0,1-2.65,8.68c-3.37,7.33-12.19,15.68-26,15.06-11.43-.51-22.43-7.59-30.15-19.17l1.85-.84c.3.42.6.84.91,1.23,9.8,12.2,17.35,15.3,25.66,16.19a27,27,0,0,0,3,.16,24.77,24.77,0,0,0,17.56-7c4-3.95,6-8.95,5.58-13.72-.76-7.94-5.44-13-11.78-16.23,8.47-4.19,17.25-8.65,26.31-13.45C224,281.72,222.12,288.43,223,294.62Z"/><polygon points="364.91 284.09 364.77 284.06 364.68 284.17 364.67 284.41 364.63 284.64 364.73 284.88 364.62 285.12 364.72 285.36 364.71 285.6 364.63 285.83 364.71 286.07 364.69 286.31 364.75 286.55 364.65 286.79 364.75 287.02 364.67 287.26 364.71 287.5 364.73 287.74 364.73 287.98 364.67 288.21 364.73 288.45 364.71 288.69 364.77 288.93 364.76 289.17 364.7 289.4 364.67 289.64 364.76 289.88 364.76 290.12 364.72 290.36 364.76 290.59 364.74 290.83 364.76 291.07 364.68 291.31 364.73 291.55 364.66 291.78 364.71 292.02 364.67 292.26 364.65 292.5 364.64 292.74 364.72 292.97 364.65 293.21 364.65 293.45 364.69 293.69 364.71 293.92 364.73 294.16 364.7 294.4 364.71 294.63 364.66 294.87 364.67 295.11 364.68 295.34 364.69 295.58 364.67 295.81 364.66 296.05 364.69 296.29 364.64 296.53 364.61 296.77 364.6 297 364.68 297.25 364.68 297.48 364.57 297.72 364.63 297.96 364.63 298.2 364.66 298.44 364.6 298.68 364.62 298.92 364.68 299.16 364.59 299.4 364.68 299.64 364.66 299.88 364.6 300.12 364.6 300.36 364.61 300.59 364.6 300.83 364.62 301.07 364.7 301.31 364.63 301.55 364.63 301.79 364.68 302.03 364.72 302.26 364.76 302.5 364.97 302.59 365.21 302.56 365.45 302.49 365.69 302.52 365.93 302.58 366.17 302.55 366.41 302.48 366.65 302.55 366.91 302.55 367.14 302.58 367.41 302.56 367.62 302.5 367.86 302.5 368.1 302.57 368.34 302.51 368.58 302.56 368.83 302.57 369.07 302.5 369.31 302.49 369.55 302.5 369.79 302.56 370.03 302.54 370.27 302.48 370.51 302.52 370.75 302.55 370.99 302.51 371.23 302.49 371.48 302.54 371.71 302.49 371.96 302.48 372.2 302.58 372.44 302.54 372.68 302.58 372.92 302.5 373.16 302.51 373.4 302.5 373.64 302.54 373.88 302.58 374.12 302.5 374.37 302.57 374.61 302.59 374.85 302.48 375.09 302.57 375.33 302.54 375.57 302.53 375.82 302.55 376.04 302.58 376.29 302.46 376.53 302.54 376.77 302.58 377.01 302.47 377.27 302.53 377.51 302.58 377.76 302.55 377.98 302.52 378.22 302.55 378.46 302.51 378.73 302.59 378.97 302.56 379.21 302.54 379.45 302.53 379.7 302.6 379.92 302.55 380.16 302.58 380.4 302.53 380.66 302.57 380.89 302.52 381.13 302.56 381.37 302.53 381.61 302.57 381.85 302.55 382.09 302.52 382.32 302.6 382.56 302.51 382.82 302.58 383.06 302.56 383.3 302.56 383.54 302.62 383.78 302.55 384.03 302.56 384.27 302.62 384.41 302.59 384.57 302.6 384.73 302.54 384.81 302.44 384.77 302.32 384.69 302.21 384.61 302.06 384.43 301.95 384.29 301.78 384.03 301.6 383.89 301.4 383.67 301.26 383.51 301.09 383.3 300.95 383.17 300.75 382.98 300.61 382.78 300.47 382.62 300.29 382.42 300.14 382.27 299.96 382.08 299.8 381.86 299.7 381.75 299.46 381.55 299.32 381.4 299.13 381.18 299.02 380.99 298.87 380.82 298.7 380.65 298.53 380.51 298.33 380.25 298.25 380.1 298.06 379.98 297.8 379.79 297.65 379.59 297.52 379.4 297.37 379.24 297.17 379.08 297 378.84 296.91 378.7 296.7 378.5 296.57 378.34 296.39 378.12 296.28 377.95 296.11 377.79 295.92 377.66 295.72 377.42 295.62 377.28 295.42 377.05 295.32 376.89 295.14 376.75 294.94 376.57 294.77 376.35 294.67 376.23 294.44 376.06 294.27 375.89 294.1 375.7 293.95 375.53 293.77 375.34 293.63 375.16 293.47 374.99 293.3 374.82 293.13 374.57 293.04 374.39 292.88 374.27 292.66 374.08 292.51 373.93 292.32 373.71 292.19 373.5 292.07 373.39 291.83 373.14 291.74 373.04 291.5 372.86 291.33 372.61 291.25 372.47 291.05 372.31 290.86 372.13 290.7 371.94 290.55 371.79 290.35 371.57 290.24 371.43 290.04 371.19 289.94 371.03 289.79 370.88 289.6 370.72 289.42 370.51 289.28 370.36 289.09 370.11 289.01 369.99 288.79 369.83 288.61 369.65 288.45 369.48 288.27 369.3 288.12 369.11 287.96 368.94 287.8 368.74 287.64 368.63 287.4 368.39 287.31 368.21 287.14 368.05 286.97 367.88 286.79 367.72 286.62 367.53 286.47 367.34 286.32 367.19 286.11 366.98 286 366.82 285.81 366.64 285.66 366.44 285.53 366.25 285.38 366.14 285.14 365.9 285.02 365.76 284.86 365.6 284.71 365.43 284.54 365.25 284.39 365.07 284.19 364.91 284.09"/><polygon points="380.33 272.31 380.08 272.3 379.84 272.28 379.59 272.31 379.34 272.29 379.09 272.3 378.85 272.3 378.6 272.34 378.35 272.3 378.11 272.36 377.86 272.32 377.61 272.32 377.37 272.37 377.12 272.3 376.87 272.33 376.62 272.31 376.38 272.31 376.13 272.35 375.88 272.3 375.64 272.32 375.39 272.31 375.14 272.3 374.9 272.31 374.65 272.26 374.4 272.28 374.16 272.25 373.91 272.28 373.66 272.26 373.42 272.29 373.17 272.29 372.92 272.31 372.67 272.3 372.43 272.26 372.18 272.29 371.93 272.32 371.69 272.27 371.44 272.27 371.19 272.27 370.94 272.28 370.7 272.33 370.45 272.28 370.21 272.32 370 272.38 369.95 272.58 369.88 272.81 369.85 273.03 369.84 273.26 369.82 273.5 369.87 273.73 369.83 273.96 369.81 274.2 369.83 274.45 369.87 274.69 369.82 274.94 369.88 275.18 369.85 275.43 369.86 275.67 369.84 275.92 369.87 276.16 369.9 276.4 369.88 276.65 369.87 276.89 369.87 277.14 369.9 277.38 369.95 277.63 369.94 277.88 369.97 278.13 369.93 278.38 369.94 278.63 369.98 278.88 369.97 279.14 370.01 279.39 370 279.64 369.98 279.89 369.99 280.14 369.95 280.39 369.95 280.64 369.98 280.89 370 281.14 370.01 281.39 369.96 281.64 369.96 281.89 370 282.14 370.02 282.39 369.98 282.64 370.03 282.89 370.05 283.14 370.07 283.39 370.08 283.64 370.11 283.89 370.19 284.08 370.42 284.03 370.56 283.82 370.76 283.69 370.93 283.51 371.14 283.38 371.31 283.21 371.49 283.03 371.68 282.88 371.83 282.69 372.01 282.53 372.23 282.4 372.39 282.21 372.58 282.07 372.74 281.88 372.92 281.71 373.13 281.59 373.33 281.45 373.5 281.27 373.68 281.11 373.87 280.95 374.05 280.79 374.24 280.63 374.42 280.47 374.62 280.33 374.77 280.13 374.97 279.99 375.16 279.84 375.31 279.64 375.52 279.5 375.69 279.32 375.9 279.19 376.09 279.03 376.28 278.87 376.49 278.74 376.66 278.55 376.82 278.36 377.02 278.22 377.22 278.07 377.4 277.91 377.6 277.75 377.77 277.58 377.97 277.43 378.15 277.27 378.33 277.1 378.52 276.93 378.69 276.75 378.88 276.61 379.08 276.46 379.25 276.27 379.44 276.12 379.64 275.97 379.82 275.81 380.01 275.65 380.15 275.43 380.38 275.32 380.54 275.13 380.71 274.96 380.88 274.78 381.08 274.63 381.26 274.46 381.42 274.28 381.64 274.15 381.8 273.96 381.97 273.79 382.16 273.63 382.34 273.46 382.52 273.29 382.69 273.12 382.87 272.95 383.01 272.75 383.19 272.58 383.25 272.39 383.07 272.3 382.82 272.3 382.58 272.33 382.33 272.29 382.08 272.27 381.83 272.32 381.58 272.3 381.33 272.32 381.08 272.28 380.83 272.33 380.58 272.33 380.33 272.31"/><polygon points="360.04 279.74 360.1 279.5 360.16 279.26 360.06 279.02 360.14 278.78 360.18 278.54 360.03 278.29 360.16 278.05 360.12 277.81 360.11 277.57 360.15 277.32 360.08 277.08 360.07 276.84 360.1 276.6 360.11 276.36 360.08 276.12 360.14 275.88 360.21 275.64 360.17 275.39 360.1 275.15 360.14 274.91 360.09 274.67 360.24 274.43 360.21 274.19 360.18 273.94 360.17 273.7 360.27 273.46 360.11 273.21 360.18 272.97 360.12 272.73 360.27 272.49 360.13 272.24 360.18 272 360.14 271.75 360.21 271.51 360.18 271.27 360.15 271.02 360.24 270.78 360.19 270.54 360.29 270.3 360.31 270.06 360.27 269.81 360.32 269.57 360.27 269.33 360.24 269.09 360.19 268.91 360.05 268.79 359.86 268.62 359.51 268.77 359.26 268.77 359.02 268.73 358.77 268.75 358.56 268.9 358.33 268.97 358.06 268.89 357.83 269 357.62 269.12 357.41 269.25 357.16 269.29 356.95 269.41 356.75 269.54 356.51 269.62 356.31 269.75 356.08 269.83 355.87 269.96 355.71 270.16 355.43 270.17 355.25 270.33 355.02 270.42 354.86 270.63 354.67 270.78 354.47 270.91 354.27 271.05 354.03 271.13 353.93 271.4 353.71 271.52 353.46 271.6 353.29 271.77 353.14 271.97 352.97 272.16 352.73 272.26 352.54 272.42 352.45 272.68 352.22 272.79 352.08 273 351.89 273.16 351.78 273.4 351.61 273.57 351.42 273.73 351.19 273.87 351.13 274.13 350.92 274.28 350.86 274.54 350.68 274.72 350.48 274.87 350.33 275.07 350.28 275.33 350.04 275.47 349.9 275.68 349.76 275.88 349.65 276.11 349.51 276.31 349.42 276.54 349.31 276.76 349.18 276.98 349.06 277.19 349.08 277.48 348.99 277.7 348.78 277.88 348.71 278.12 348.57 278.33 348.55 278.59 348.53 278.85 348.31 279.03 348.36 279.31 348.15 279.5 348.06 279.73 348.13 280.01 348 280.23 347.88 280.45 347.82 280.7 347.79 280.94 347.67 281.17 347.71 281.43 347.59 281.66 347.68 281.92 347.58 282.15 347.5 282.39 347.44 282.63 347.46 282.88 347.39 283.12 347.52 283.37 347.4 283.61 347.4 283.86 347.4 284.1 347.37 284.35 347.38 284.6 347.4 284.84 347.4 285.09 347.47 285.33 347.35 285.58 347.49 285.82 347.5 286.06 347.5 286.31 347.5 286.55 347.5 286.8 347.55 287.04 347.6 287.29 347.68 287.52 347.69 287.77 347.64 288.02 347.7 288.26 347.79 288.5 347.86 288.74 347.77 289 347.95 289.22 347.86 289.49 347.98 289.72 347.98 289.98 348.12 290.2 348.13 290.45 348.21 290.68 348.28 290.92 348.37 291.15 348.49 291.37 348.54 291.61 348.53 291.87 348.71 292.07 348.74 292.32 348.85 292.54 349.01 292.74 349.11 292.96 349.14 293.21 349.21 293.45 349.34 293.67 349.53 293.84 349.61 294.07 349.69 294.31 349.88 294.48 349.9 294.76 350.06 294.95 350.28 295.1 350.28 295.38 350.44 295.57 350.57 295.79 350.82 295.87 351.05 295.94 351.27 296.08 351.52 295.97 351.76 296 352.01 296.01 352.26 295.98 352.5 296.07 352.75 295.99 353 295.96 353.24 295.94 353.49 296.01 353.73 295.96 353.98 296.03 354.23 296.02 354.47 295.94 354.72 296.06 354.97 295.98 355.21 296.02 355.46 295.97 355.7 296.06 355.95 295.98 356.2 295.98 356.44 296.08 356.69 295.99 356.94 296.01 357.18 295.93 357.43 296.05 357.68 296.08 357.92 296.02 358.17 295.99 358.42 296.08 358.67 295.94 358.91 295.93 359.16 296.01 359.41 295.98 359.66 296.06 359.85 295.91 359.94 295.73 359.95 295.48 360.05 295.24 359.95 294.99 360.05 294.75 359.92 294.5 360.06 294.26 359.94 294.01 360.09 293.77 359.96 293.52 360.09 293.28 360.07 293.04 359.99 292.79 360.05 292.54 359.97 292.3 360 292.05 360 291.8 360.1 291.56 360.13 291.31 360.15 291.07 360.1 290.82 360.1 290.57 360.12 290.33 360.14 290.08 360.15 289.83 360.13 289.58 360.13 289.34 360.07 289.09 360.05 288.84 360.08 288.6 360.05 288.35 360.03 288.1 360.16 287.85 360.11 287.61 360.18 287.36 360.1 287.11 360.04 286.86 360.13 286.62 360.08 286.37 360.03 286.12 360.14 285.88 360.09 285.63 360.06 285.38 360.02 285.13 360.18 284.89 360.1 284.64 360.12 284.39 360.05 284.15 360.03 283.9 360.07 283.65 360.06 283.41 360.17 283.16 360.08 282.92 360.11 282.67 360.08 282.43 360.03 282.19 360.1 281.94 360.01 281.7 360.1 281.45 360.04 281.21 360.14 280.96 360.09 280.72 360.06 280.47 360.08 280.23 360.07 279.98 360.04 279.74"/><path d="M382.38,317.33v-.12c.65-.06.74-.12.74-.61v-4.77c0-.49-.09-.55-.74-.61v-.12h5l0,1.6h-.09c-.42-1.15-.86-1.43-1.68-1.43h-1.17V314h.9c.62,0,.78-.37.85-.93h.11v2h-.11c-.07-.57-.23-.93-.85-.93h-.9v2.36c0,.48,0,.6.54.6h.78c.75,0,1.36-.49,1.86-1.7h.1l-.3,1.87Z"/><path d="M391.19,316.6c0,.49.08.55.74.61v.12h-2.84v-.12c.65-.06.74-.12.74-.61v-4.77c0-.49-.09-.55-.74-.61v-.12h2.84v.12c-.66.06-.74.12-.74.61Z"/><path d="M376.81,316.6c0,.49.08.55.73.61v.12h-2.83v-.12c.64-.06.74-.12.74-.61v-4.77c0-.49-.1-.55-.74-.61v-.12h2.83v.12c-.65.06-.73.12-.73.61Z"/><path d="M377.16,314.2l2.51-2.36a.64.64,0,0,0,.22-.37c0-.17-.21-.22-.92-.25v-.12h2.27v.12a1.51,1.51,0,0,0-1.1.47l-1.85,1.72,2.15,2.78c.42.54.9,1,1.3,1v.12h-2.06a7.59,7.59,0,0,1-1.22-1.44Z"/><path d="M346.34,312.09l-1.87,5.26h-.18l-2.1-5.26-.53,4.42c-.06.58.18.66.94.7v.11h-2v-.11c.51,0,.76-.12.8-.53l.58-4.78c0-.45-.21-.63-.81-.66v-.11h2.1a2.18,2.18,0,0,0,.15.54l1.5,3.8,1.33-3.81a2.19,2.19,0,0,0,.14-.53h2.06v.11c-.64,0-.81.21-.81.66l.58,4.78c.05.42.22.5.76.53v.11h-2.94v-.11c.73,0,.88-.13.8-.78Z"/><path d="M353.14,316.51c0,.27.13.4.36.4a.65.65,0,0,0,.29-.07l0,0a1.18,1.18,0,0,1-1,.52.82.82,0,0,1-.85-.67,1.73,1.73,0,0,1-1.29.65,1,1,0,0,1-1.13-1c0-.61.51-.94,1.23-1.17l1.18-.39V314c0-.5-.16-.85-.6-.85s-.57.31-.57.76a2,2,0,0,0,.08.55l-.71.08a.51.51,0,0,1-.38-.5c0-.63.81-1,1.69-1,1.05,0,1.64.37,1.64,1.3Zm-1.15.14v-1.71l-.69.26a.83.83,0,0,0-.61.87.71.71,0,0,0,.69.81A.85.85,0,0,0,352,316.65Z"/><path d="M356.17,316.89c0,.29.15.32.53.34v.1h-2.24v-.1c.39,0,.54-.05.54-.34v-3l-.51-.35v0l1.64-.44h0Zm-1.27-5a.62.62,0,0,1,.67-.62.64.64,0,0,1,.68.62.65.65,0,0,1-.68.63A.63.63,0,0,1,354.9,311.93Z"/><path d="M357.61,317l-.05-1.17h.08a1.67,1.67,0,0,0,1.49,1.45.75.75,0,0,0,.83-.76c0-1.08-2.32-.66-2.32-2.18a1.44,1.44,0,0,1,1.61-1.31,2.36,2.36,0,0,1,1.29.35v1h-.08a1.41,1.41,0,0,0-1.24-1.24.67.67,0,0,0-.75.67c0,1.08,2.36.65,2.36,2.2,0,.84-.74,1.38-1.73,1.38A2.76,2.76,0,0,1,357.61,317Z"/><path d="M366,315.14a2.15,2.15,0,0,1-2.17,2.27,2,2,0,0,1-2.14-2.09,2.16,2.16,0,0,1,2.17-2.28A2,2,0,0,1,366,315.14Zm-1.23.29c0-1.26-.3-2.28-.95-2.28s-.9.73-.9,1.87.29,2.28,1,2.28S364.75,316.57,364.75,315.43Z"/><path d="M369.86,314.4c0-.49-.2-.73-.68-.73a1.7,1.7,0,0,0-.9.27v2.95c0,.29.15.32.54.34v.1h-2.24v-.1c.39,0,.54-.05.54-.34v-3l-.52-.35v0l1.68-.44h0l0,.83a2.16,2.16,0,0,1,1.55-.83c.79,0,1.19.47,1.19,1.29v2.56c0,.29.16.32.54.34v.1h-2.24v-.1c.38,0,.54-.05.54-.34Z"/><text class="cls-7" transform="translate(436.9 330.61) scale(1 0.98)">東山観音堂</text><text class="cls-7" transform="translate(239.65 321.77) scale(1 0.98)">御殿<tspan class="cls-8" x="21.33" y="0">場</tspan></text><text class="cls-9" transform="translate(272.89 322.07) scale(1.05 1.03)">IC</text><text class="cls-10" transform="translate(239.65 333.82) scale(1 0.98)">第</text><text class="cls-11" transform="translate(251.56 334.11) scale(1.05 1.03)">2</text><text class="cls-7" transform="translate(259.62 333.82) scale(1 0.98)">出口</text><text class="cls-7" transform="translate(43.63 277.6) scale(1 0.98)">御殿<tspan class="cls-8" x="21.33" y="0">場</tspan></text><text class="cls-9" transform="translate(76.87 277.9) scale(1.05 1.03)">IC</text><text class="cls-10" transform="translate(43.63 289.65) scale(1 0.98)">第</text><text class="cls-11" transform="translate(55.54 289.95) scale(1.05 1.03)">1</text><text class="cls-7" transform="translate(63.6 289.65) scale(1 0.98)">出口</text><rect class="cls-12" x="231.14" y="486.23" width="62.87" height="15.22"/><text class="cls-7" transform="translate(236.17 497.57) scale(1 0.98)">東山湖入口</text><rect class="cls-12" x="293.55" y="279.66" width="31.18" height="15.22"/><rect class="cls-12" x="77.09" y="460.71" width="41.24" height="15.22"/><text class="cls-7" transform="translate(81.95 472.06) scale(1 0.98)">東田中</text><rect class="cls-12" x="269.91" y="379.29" width="41.61" height="15.22"/><text class="cls-7" transform="translate(274.92 390.69) scale(1 0.98)">湖水前</text><text class="cls-7" transform="matrix(0.45, 0.89, -0.88, 0.44, 180.09, 67.09)">御殿<tspan class="cls-13" x="21.33" y="0">場</tspan><tspan class="cls-14" x="32.11" y="0">バ</tspan><tspan class="cls-15" x="41.78" y="0">イ</tspan><tspan class="cls-16" x="51.07" y="0">パ</tspan><tspan class="cls-17" x="61.01" y="0">ス</tspan></text><text class="cls-18" transform="translate(359.53 378.32) scale(1 0.98)">と<tspan class="cls-19" x="8.58" y="0">ら</tspan><tspan class="cls-20" x="17.84" y="0">や</tspan><tspan class="cls-21" x="27.91" y="0">工</tspan><tspan class="cls-22" x="38.27" y="0">房</tspan><tspan class="cls-23"><tspan x="0.64" y="12.29">東</tspan><tspan class="cls-24" x="10.76" y="12.29">山</tspan><tspan class="cls-22" x="20.98" y="12.29">旧</tspan><tspan class="cls-21" x="31.5" y="12.29">岸</tspan><tspan class="cls-25" x="41.87" y="12.29">邸</tspan></tspan><tspan class="cls-26"><tspan x="0.64" y="24.59">駐</tspan><tspan class="cls-21" x="10.91" y="24.59">車</tspan><tspan class="cls-25" x="21.28" y="24.59">場</tspan></tspan></text><text class="cls-27" transform="translate(328.05 465.21) scale(1 0.98)">東山湖</text><text class="cls-7" transform="translate(203.56 525.69) scale(1 0.98)">秩父宮記念公園</text><text class="cls-7" transform="translate(108.71 507.87) scale(1 0.98)">交番</text><text class="cls-28" transform="translate(300.06 427.38) scale(1 0.98)">鈴廣</text><circle class="cls-29" cx="429.63" cy="327.4" r="3.73"/><circle cx="435.47" cy="348.52" r="3.73"/><circle cx="404.12" cy="313.97" r="7.45"/><circle class="cls-29" cx="319.67" cy="412.03" r="3.73"/><rect class="cls-30" x="316.74" y="392.68" width="18.94" height="7.43"/><circle cx="320.61" cy="396.39" r="2.13"/><circle cx="326.21" cy="396.39" r="2.13"/><circle cx="331.81" cy="396.39" r="2.13"/><circle class="cls-29" cx="123.52" cy="492.3" r="3.73"/><circle class="cls-30" cx="218.51" cy="163.78" r="9.14"/><text class="cls-31" transform="translate(211.23 166.28) scale(1.05 1.03)">1<tspan class="cls-32" x="4.05" y="0">38</tspan></text><circle class="cls-30" cx="95.21" cy="220.8" r="9.14"/><text class="cls-33" transform="translate(88.44 223.57) scale(1.05 1.03)">4<tspan class="cls-34" x="4.51" y="0">0</tspan><tspan class="cls-32" x="8.46" y="0">1</tspan></text><text class="cls-35" transform="translate(298.22 290.93) scale(1 0.98)">石橋</text><line class="cls-4" x1="-114.6" y1="255.71" x2="140.89" y2="-9.99"/><rect x="8.2" y="93.06" width="52.65" height="15.22" transform="translate(-62 55.83) rotate(-46.15)"/><text class="cls-36" transform="matrix(0.69, -0.72, 0.71, 0.68, 22.45, 118.29)">御殿場駅</text><text class="cls-9" transform="matrix(0.73, -0.76, 0.74, 0.71, 73.42, 54.2)">J<tspan class="cls-37" x="5.67" y="0">R</tspan></text><text class="cls-7" transform="matrix(0.69, -0.72, 0.71, 0.68, 83.37, 43.42)">御殿場線</text><path d="M467.61,345.25l.85.65v.24h-3.38v1h1.26l.31-.59.87.55c.15.09.22.18.22.27s-.1.17-.27.27v2.26l-1.13.17v-.44h-1.19a3.89,3.89,0,0,0,1.32,1,8.72,8.72,0,0,0,2.1.73v.18a1.19,1.19,0,0,0-.73.88,5.29,5.29,0,0,1-2.13-1.45,4.68,4.68,0,0,1-.6-1v2.67l-1.16.16v-2.11a12,12,0,0,1-3.25,1.84l-.07-.13a14.13,14.13,0,0,0,2.8-2.77h-.73v.31l-1.12.14v-3.46l1.08.52h1.28v-1h-3.28l-.1-.24h3.38v-1.17l1.24.17c.2,0,.3.07.3.17s-.12.2-.37.27v.56h2Zm-4.93,3h1.24v-.9h-1.24Zm0,1.12h1.24v-.89h-1.24Zm2.4-2v.9h1.26v-.9Zm0,1.13v.87h1.26v-.88Z"/><path d="M461.1,355.77l1.25.17c.2,0,.3.06.3.17s-.12.22-.35.31v4.24H464v-6.5l1.26.11c.2,0,.3.09.3.21s-.12.2-.38.3v5.88h1.72v-4.85l1.24.17c.2,0,.3.08.3.17s-.12.2-.37.27v5l-1.17.17v-.69H462.3v.55l-1.2.21Z"/><path d="M461.24,363.29l1.24.16c.2,0,.3.09.3.18s-.12.2-.37.27v6.94l-1.17.17Zm2.05.06,1.15.61h2.3l.31-.59,1,.57c.17.11.26.21.26.29s-.12.22-.34.35v5.95l-1.21.24v-.58h-2.28v.55l-1.16.17Zm1.16,3.49h2.29V364.2h-2.29Zm0,3.11h2.29v-2.87h-2.29Z"/><path d="M464,372.27l1.24.11c.2,0,.3.07.3.19s-.12.19-.38.29v1.21h1.4v-1.54l1.27.14c.2,0,.31.08.31.17s-.15.2-.45.27v1.37l-1.13.17v-.34h-3.92v.34l-.88.13.72.35h4.8l.51-.58.78.58v.24H462.4v1.85A3.22,3.22,0,0,1,462,379a4,4,0,0,1-1.25,1.2l-.1-.18a4.73,4.73,0,0,0,.41-1.2,9.09,9.09,0,0,0,.1-1.56v-2.74l.38.18v-2.11l1.26.15c.21,0,.31.07.31.17s-.15.19-.44.27v.92H464Zm3.07,3.45.83.61v.24h-2.3v1.07h1.65l.51-.58.78.58v.24h-2.91v2.19l-1.2.13v-2.32h-1.88l-.1-.25h2v-1.06h-1.68l-.1-.24h3.93Z"/><path d="M464.83,382.38a7.39,7.39,0,0,1-.82.14,18.64,18.64,0,0,0,.08,1.87h0l.48-.54.73.54v.24h-1.24c0,.2,0,.41.08.61a4.13,4.13,0,0,0,.48,1.45l.51-.85.17.07-.21,1.16a1.21,1.21,0,0,0,.38.82.73.73,0,0,1-.66.42c-.19,0-.43-.18-.72-.53a4.34,4.34,0,0,1-.56-1l-2.18,1.2c-.07.21-.14.31-.21.31s-.14-.07-.18-.2l-.33-1,.55-.12v-5.25l1.12.59a6.85,6.85,0,0,0,2.18-.86l.81.72a.25.25,0,0,1,.08.17c0,.05-.06.06-.13.06A1.84,1.84,0,0,1,464.83,382.38Zm-1,5.67.82.61v.25H461.1l-.09-.25h2.32Zm-.73-3.64q0-.74-.06-1.8h-.72v1.77Zm.38,2.15c-.05-.16-.1-.32-.14-.49a7.62,7.62,0,0,1-.22-1.42h-.8v2.15Zm4.21-4.68,1,.73a.23.23,0,0,1,.09.18c0,.06-.09.09-.27.1-.45.63-.89,1.23-1.33,1.77a3.48,3.48,0,0,1,1,1,2.83,2.83,0,0,1,.4,1.55,1.39,1.39,0,0,1-.2.82,1.15,1.15,0,0,1-1,.4c-.11,0-.19-.1-.23-.28a.6.6,0,0,0-.46-.42v1.56l-1.16.17v-7.7l1.15.62h.73Zm-1,.73v4.75h.86a5.38,5.38,0,0,0-.61-2.67,18,18,0,0,0,.51-2.08Z"/><path d="M445.59,344.74a3.63,3.63,0,0,1,1.17.23,2.48,2.48,0,0,1,.93.63,1.18,1.18,0,0,1,.19.73c0,.87-.25,1.77-.25,2.78a.58.58,0,0,0,.18.48.14.14,0,0,0,.15,0c1.07-.65,2.18-1.25,3.05-1.68.44-.24.66-.36.66-.64a1,1,0,0,0-.24-.64c-.06-.05,0-.16.11-.16a.75.75,0,0,1,.29.09,2.28,2.28,0,0,1,1.1,1.8,1.21,1.21,0,0,1-.16.56.44.44,0,0,1-.29.19c-.27.06-.61.1-.89.16a13.7,13.7,0,0,0-4.41,1.85c-1.07.72-1.45,1.28-1.45,1.87s.61,1,2.18,1a10.51,10.51,0,0,0,2.74-.36,1.34,1.34,0,0,1,.4-.06,2.38,2.38,0,0,1,.37.06,3.66,3.66,0,0,1,1.3.52.53.53,0,0,1,.23.45.39.39,0,0,1-.34.41,15.55,15.55,0,0,1-3.05.21,13.33,13.33,0,0,1-2.67-.24A2.12,2.12,0,0,1,445,353a3.21,3.21,0,0,1,1.57-2.46c.27-.2.51-.38.72-.51a.07.07,0,0,0,0-.08s0,0,0,0a1.47,1.47,0,0,1-.79-1.28,27,27,0,0,0-.21-2.7,1.11,1.11,0,0,0-.43-.72.79.79,0,0,0-.29-.11.17.17,0,0,1-.13-.18A.18.18,0,0,1,445.59,344.74Z"/><path d="M447.85,358.41a2.61,2.61,0,0,1,.42.08c1.27.17,2.57.5,2.57,1.92a.89.89,0,0,1-.85.94.57.57,0,0,1-.38-.18,3,3,0,0,0-.51-.41,1.58,1.58,0,0,0-.61-.12,2.31,2.31,0,0,0-1.31.41,1.8,1.8,0,0,0-.72,1.31c0,.5,0,1.1,0,1.27a9.4,9.4,0,0,1-.41,1.27,6,6,0,0,0-.31,1.46c0,.25.17.47.28.47a.32.32,0,0,0,.21-.08c1.13-.73,2.1-2.46,3.94-2.46a2.88,2.88,0,0,1,1.16.22,2.94,2.94,0,0,1,1.65,3c0,2-2.26,2.7-5.57,2.7-.15,0-.16-.26,0-.28,2.06-.19,3.33-.79,3.8-1.73a2.43,2.43,0,0,0,.23-1.09c0-1.46-.51-2.43-1.2-2.43a1.67,1.67,0,0,0-1,.3,12.3,12.3,0,0,0-2.23,3.11c-.2.33-.24.52-.88.52a1.46,1.46,0,0,1-1.06-.88,2.94,2.94,0,0,1-.29-1.34,15.16,15.16,0,0,1,.39-3.14,4,4,0,0,1,1.24-2.09,3.84,3.84,0,0,1,2.72-.91.13.13,0,0,0,.14-.14.66.66,0,0,0-.08-.34,2.72,2.72,0,0,0-1.23-1l-.24-.12C447.72,358.54,447.75,358.39,447.85,358.41Z"/><path d="M447.24,373.34a2.91,2.91,0,0,1,.59,0c1.09.19,2.09.79,2.09,1.65a1.06,1.06,0,0,1-.17.62s0,.08.05.06a6.51,6.51,0,0,1,2.19-.38,2.91,2.91,0,0,1,3,2.75c0,1.52-1.3,2.76-3.57,2.76-1.85,0-2.65-1.09-3.39-2.28a.13.13,0,0,1,0-.17.13.13,0,0,1,.17,0,3.74,3.74,0,0,0,2.91,1.36,2.24,2.24,0,0,0,2.38-2,1.79,1.79,0,0,0-1.58-2h-.23c-1.23,0-2.58.9-4.7,2.05-.1.05-.12.14-.08.2a10.29,10.29,0,0,1,2,4.42c0,.88-.48,1.57-.95,1.57a.93.93,0,0,1-.85-.92,15.9,15.9,0,0,0,0-2.07,6.38,6.38,0,0,0-.77-2.59.17.17,0,0,0-.16-.07c-.25.14-.91.58-1.29.84a1.08,1.08,0,0,1-.73.25,1.37,1.37,0,0,1-.53-.08,1.65,1.65,0,0,1-.76-.57,1.12,1.12,0,0,1-.23-.68,1.28,1.28,0,0,1,.28-.92s.11,0,.11,0a1.82,1.82,0,0,0,0,.33.47.47,0,0,0,.42.53c.42,0,.62-.07,2.09-.66a.11.11,0,0,0,0-.16s0,0,0,0a11.33,11.33,0,0,0-1-1.11.93.93,0,0,1-.23-.57,1.2,1.2,0,0,1,1.15-1.25h0a4.37,4.37,0,0,1,1.59.39,4,4,0,0,0,1.08.3c.21,0,.28-.1.28-.26,0-.42-.63-1-1.26-1.34C447.15,373.42,447.17,373.34,447.24,373.34Zm-1.58,2.08a2.88,2.88,0,0,0,.66,1.54.15.15,0,0,0,.19.05c.49-.2,1.2-.56,1.74-.79.08,0,.08-.11,0-.16a4.94,4.94,0,0,0-1.11-1,1.56,1.56,0,0,0-.73-.22c-.47-.06-.75.22-.75.53Z"/><path d="M452.37,396.14a.23.23,0,0,0,.17-.1l.94-1.15a.39.39,0,0,1,.22-.11.28.28,0,0,1,.22.09c.25.22.9.78,1.25,1.12a.41.41,0,0,1,.13.27c0,.13-.06.22-.3.22H443a.17.17,0,0,1-.17-.08,1.34,1.34,0,0,1-.12-.24c0-.07,0-.12.1-.12,1.36.07,3,.07,4.89.07a.1.1,0,0,0,.11-.1h0V388c0-.1-.05-.14-.11-.14h-4.11a.21.21,0,0,1-.19-.08l-.12-.24c0-.05,0-.13.09-.13,1.19.06,2.18.07,3.1.07h5.33a.2.2,0,0,0,.18-.07l.77-.94c.05-.05.13-.16.22-.16a.48.48,0,0,1,.26.12,14,14,0,0,1,1.18,1,.32.32,0,0,1,.08.21c0,.09-.06.16-.2.16h-4.37a0,0,0,0,0,0,0v.09a.29.29,0,0,1-.26.22s0,0,0,.06V396a.12.12,0,0,0,.12.1Z"/><path d="M455,405.76c-.32-.25-.88-.63-1.13-.8a.41.41,0,0,0-.26-.09.36.36,0,0,0-.25.15c-.1.1-.43.49-.61.73a.17.17,0,0,1-.13.07h-2.19c-.07,0-.09,0-.09-.07v-.85s0-.07.06-.08a.28.28,0,0,0,.16-.24.38.38,0,0,0,0-.15.05.05,0,0,1,0-.07h1.72a.09.09,0,0,1,.09.09h0v.17a.31.31,0,0,0,.31.26c.85,0,1.57-.43,1.55-.72s-.08-.85-.12-1.19a.17.17,0,0,1,0-.15c.21-.15.32-.29.32-.42a.35.35,0,0,0-.2-.28c-.34-.19-1-.5-1.23-.61a.63.63,0,0,0-.27-.06.25.25,0,0,0-.18.1,4.34,4.34,0,0,0-.28.42.24.24,0,0,1-.19.1h-6.28c-.51-.15-1.23-.3-1.63-.4-.2,0-.26,0-.24.15a12.4,12.4,0,0,1,.14,2c0,.92,0,2.28-.11,3.56-.16,2.1-.55,3.22-1.5,4.18-.09.08.07.2.14.16,2.32-1.28,2.83-3.4,3-5.46a.13.13,0,0,1,.14-.09h2.64c.08,0,.12.07.12.16a5.55,5.55,0,0,1-2.05,4.16,4.87,4.87,0,0,1-2,.67c-.14,0-.1.24,0,.24,2.6-.2,4.73-.78,5.42-3.7a.18.18,0,0,1,.19-.14h1.87c.06,0,.1,0,.09.16a4.55,4.55,0,0,1-.6,2.12.6.6,0,0,1-.52.21,9,9,0,0,1-1.37-.17c-.11,0-.16.15-.08.19a4.86,4.86,0,0,1,.85.57.59.59,0,0,1,.19.43v.31a.33.33,0,0,0,.35.24,2.35,2.35,0,0,0,1.71-.59,4.47,4.47,0,0,0,1.06-2.84.12.12,0,0,1,.08-.12l.26-.12a.34.34,0,0,0,.21-.3.32.32,0,0,0-.17-.33,9.71,9.71,0,0,0-1.15-.61.51.51,0,0,0-.27-.06.26.26,0,0,0-.2.1l-.29.38c-.05.06-.07.08-.15.08h-1.83c-.06,0-.09,0-.08-.08a4.59,4.59,0,0,0,.1-.51s0-.05.05-.05a.27.27,0,0,0,.22-.15.48.48,0,0,0,0-.17.09.09,0,0,1,.1-.08h4.17c.17,0,.26-.06.26-.18A.25.25,0,0,0,455,405.76Zm-6.34-.05a.15.15,0,0,1-.12.1h-2.73a.09.09,0,0,1-.08-.1c.05-.41.06-.9.07-1.28,0,0,0-.09.09-.09h2.66s.1.07.1.14ZM445.9,404c-.08,0-.1,0-.1-.08,0-.24,0-.86,0-1.17,0,0,0,0,.05,0a.16.16,0,0,0,.11,0c0-.05.06-.08.06-.22s0,0,.08,0h6a.11.11,0,0,1,.11.12c0,.07,0,1.3,0,1.37a.11.11,0,0,1-.09.11H445.9Z"/><path d="M452.37,400.72a.2.2,0,0,0,.17-.09c.23-.31.48-.6.65-.85a.34.34,0,0,1,.26-.17.41.41,0,0,1,.26.11c.31.22.93.66,1.32,1a.26.26,0,0,1,.12.21c0,.12-.06.16-.22.16H443.45c-.06,0-.16,0-.18-.05a1.76,1.76,0,0,0-.14-.27.08.08,0,0,1,.08-.1h0c1.31.06,2.5.06,3.64.06Z"/><path d="M90.1,125.49a1.37,1.37,0,0,0,1.46-1.1,1.55,1.55,0,0,0-.29-1.16,7.34,7.34,0,0,1,4.23-1.3,6.87,6.87,0,0,1,4.07,1.34,2.25,2.25,0,0,0-.22,1.08,1.39,1.39,0,0,0,1.62,1.13l.16,0a1.29,1.29,0,0,0,1-1.5,2.74,2.74,0,0,0-1-1.45,9.44,9.44,0,0,0-5.54-2.08,9,9,0,0,0-6.16,2.32,1.91,1.91,0,0,0-.68,1.52A1.43,1.43,0,0,0,90.1,125.49Z"/><path d="M101.2,135.59a1.37,1.37,0,0,0-1.75.85.83.83,0,0,0,0,.15,1.24,1.24,0,0,0,.24,1.07,6.23,6.23,0,0,1-4.06,1.44,8.19,8.19,0,0,1-4.45-1.37,1.57,1.57,0,0,0,.25-1.16,1.41,1.41,0,0,0-1.45-1.08,1.31,1.31,0,0,0-1.29,1.26,2,2,0,0,0,.79,1.52,8.89,8.89,0,0,0,6.17,2.3,9.28,9.28,0,0,0,5.53-2.1c.55-.46,1-.81,1-1.37A1.36,1.36,0,0,0,101.2,135.59Z"/><path d="M88.63,135a1.43,1.43,0,0,0-2.13-1.83,4.75,4.75,0,0,1-1-2.75,4.51,4.51,0,0,1,1.1-2.86,1.56,1.56,0,0,0,1,.44,1.4,1.4,0,1,0,.15-2.79,1.62,1.62,0,0,0-.22,0,2.82,2.82,0,0,0-1.78,1,5.8,5.8,0,0,0-.25,8.19,5.51,5.51,0,0,0,1.19,1A1.5,1.5,0,0,0,88.63,135Z"/><path d="M105,126.42a3.6,3.6,0,0,0-1.74-1,1.52,1.52,0,0,0-1.49,1.34,1.4,1.4,0,0,0,1.37,1.45h.06a1.59,1.59,0,0,0,1.06-.45,4.66,4.66,0,0,1,1.16,2.9,3.67,3.67,0,0,1-1.08,2.79,1.43,1.43,0,0,0-2-.06h0a1.38,1.38,0,0,0-.17,1.83,1.51,1.51,0,0,0,2,.33,5.5,5.5,0,0,0,2.73-4.79A6.16,6.16,0,0,0,105,126.42Z"/><path d="M90.44,134.18a2.37,2.37,0,0,1-.68.88,4.13,4.13,0,0,0,1.2-.2,2.56,2.56,0,0,0,1.71-1.6,8.26,8.26,0,0,0,.47-2.15h5.62l.29.1a.48.48,0,0,0,.5-.16c.18-.18.08-.47,0-.63a2.18,2.18,0,0,0-.42-.54.82.82,0,0,0-.44-.23.53.53,0,0,0-.34.19.59.59,0,0,1-.4.12h-1.5v-.56H97.8a.65.65,0,0,0,.23.13.52.52,0,0,0,.47,0c.11-.11.08-.28.08-.39s0-.21-.07-.32h.13a.91.91,0,0,0,.31-.12,1.92,1.92,0,0,1,.54-.19,3,3,0,0,0,.59-.06c.15,0,.24-.21.21-.65a2.66,2.66,0,0,0-.63-1.18,1.08,1.08,0,0,0-.59-.23.73.73,0,0,0-.43.16.49.49,0,0,1-.36.1H96.41c-.07,0-.08-.06-.08-.11v-.37h1.48a.74.74,0,0,0,.51.06.4.4,0,0,0,.31-.47,2.87,2.87,0,0,0-.66-.81.53.53,0,0,0-.49,0,.39.39,0,0,1-.28.12h-.89v-.22a.43.43,0,0,1,.19-.32.26.26,0,0,0,0-.31,1.83,1.83,0,0,0-1.31-.62c-1.25,0-1.34.72-1.34.72a.56.56,0,0,1,.22.21,1.54,1.54,0,0,1,.29.67,11.69,11.69,0,0,1,0,1.45H93c-.31,0-.59-.32-.88-.53a1,1,0,0,0-.87,0,3.67,3.67,0,0,0-.64.45,2.21,2.21,0,0,0,.18.34,3.54,3.54,0,0,1,.48,1.4,13.81,13.81,0,0,1-.09,4.06A6.12,6.12,0,0,1,90.44,134.18Zm6.07-6s.17-.14.17-.24a.42.42,0,0,0-.08-.18v-.1h1.74a.16.16,0,0,1,.17.13h0a1,1,0,0,1,0,.35c0,.14-.08.32-.13.31s-.12-.12-.2-.2a.5.5,0,0,0-.33-.12c-.09,0-.24.12-.44.12H96.5Zm-2,1.16v.55h-.8c-.06,0-.16-.07-.23-.08h-.2a.74.74,0,0,1,0-.21.24.24,0,0,0,0-.12v-.1h.07a.2.2,0,0,0,.16.09.77.77,0,0,0,.29-.07,1.1,1.1,0,0,1,.26-.06Zm-.46-1.65a.45.45,0,0,1,.37.38v.18H93.5c-.13,0-.28,0-.32-.28s0-.26,0-.26Z"/><path d="M95.6,134.32a1.63,1.63,0,0,0,1.12,1.53,7,7,0,0,0,2.24-.07,2.83,2.83,0,0,0,1.48-1,1.37,1.37,0,0,0,.23-.6.8.8,0,0,0-.25-.54,5.76,5.76,0,0,1-.53-.57,1.38,1.38,0,0,1-.18-.39l-.24-.47c0-.1-.21-.35-.25-.44a.61.61,0,0,0-.2-.19v.1a2,2,0,0,1,0,.35v1.59c0,.48-.48.74-1,.74a.86.86,0,0,1-.83-.44,3.34,3.34,0,0,1-.1-1,1.29,1.29,0,0,1,.18-.35.5.5,0,0,0,0-.36,1.19,1.19,0,0,0-.41-.51,1.42,1.42,0,0,0-.91-.3,1.7,1.7,0,0,0-.87.4s.14.2.22.34a2.64,2.64,0,0,1,.1.74A5.78,5.78,0,0,0,95.6,134.32Z"/><path d="M93.05,134.4a5.68,5.68,0,0,1-.9,1.1c-.13.12-.31.21-.31.23s.12,0,.2,0a2.25,2.25,0,0,0,.69.08,2.31,2.31,0,0,0,1.34-.4,2.15,2.15,0,0,0,.76-1.06,6.78,6.78,0,0,0,.13-1.2c0-.13.13-.37.18-.61s0-.4-.29-.65a1.82,1.82,0,0,0-.9-.47,1.09,1.09,0,0,0-.5.19c-.11.08-.32.19-.32.28s0,.06.07.11a1.26,1.26,0,0,1,.22.39,5.21,5.21,0,0,1,0,.79A2.46,2.46,0,0,1,93.05,134.4Z"/><path d="M115.08,70.08c0,.27-.29.44-.85.51-.27,0-.84,0-1.71,0a12,12,0,0,1-4.09-.47,1.89,1.89,0,0,1-1.28-1.92c0-1.09.95-2.08,2.84-3a1.75,1.75,0,0,1-.5-1.26c0-.17,0-.49,0-1a8.44,8.44,0,0,0,0-.93.75.75,0,0,0-.17-.54,1.1,1.1,0,0,0-.6-.22v-.31a7.05,7.05,0,0,1,1.65.16c.57.15.85.37.85.67a.41.41,0,0,1-.1.21,1.63,1.63,0,0,0-.18.43,3.69,3.69,0,0,0-.1,1,6.37,6.37,0,0,0,.08,1.31c.57-.22,1.29-.47,2.16-.76a1.08,1.08,0,0,0,.35-.19.37.37,0,0,1,.24-.12A1.78,1.78,0,0,1,115,65.08c0,.16-.1.26-.29.29H114a11.46,11.46,0,0,0-3.57.63c-1.52.5-2.28,1.12-2.28,1.85s1.14,1.22,3.41,1.22a15.2,15.2,0,0,0,1.65-.09,1.73,1.73,0,0,0,.55-.15.82.82,0,0,1,.24-.1,1,1,0,0,1,.7.39A1.32,1.32,0,0,1,115.08,70.08Z"/><path d="M107.65,75.77c1.06.42,1.58.91,1.58,1.47a.82.82,0,0,1-.23.44,3.1,3.1,0,0,0-.44.71,4,4,0,0,0-.24,1.46,16.24,16.24,0,0,1,1.6-.74,6,6,0,0,1,2.13-.44,3,3,0,0,1,2.07.65,2.38,2.38,0,0,1-.86,4,14.19,14.19,0,0,1-4.49.5l-.06-.4a7.73,7.73,0,0,0,3.34-.75,1.9,1.9,0,0,0,1.22-1.7q0-1.65-1.59-1.65a3.44,3.44,0,0,0-1.93.63c-.67.44-1,.88-1,1.34a.5.5,0,0,1-.16.4.36.36,0,0,1-.26.11,1.16,1.16,0,0,1-.71-.4,1.34,1.34,0,0,1-.47-.94,9.59,9.59,0,0,1,.36-2.13,15.58,15.58,0,0,0,.37-1.57.77.77,0,0,0-.1-.42l-.26-.27Zm1.19-2.07a2.12,2.12,0,0,0,1.77.68,2.72,2.72,0,0,0,1-.15,2.54,2.54,0,0,1,.46-.17c.17,0,.4.16.67.48a1.34,1.34,0,0,1,.37.69.37.37,0,0,1-.09.27.26.26,0,0,1-.21.11h-.23a2.71,2.71,0,0,0-.57,0,5.41,5.41,0,0,0-2.34.53l-.16-.29.85-.49c-.66,0-1.27-.48-1.81-1.43Z"/><path d="M112.69,88.56a.93.93,0,0,1-.12.46h.59a2.92,2.92,0,0,1,2.22.78,2.13,2.13,0,0,1,.57,1.49,1.92,1.92,0,0,1-.67,1.47,2.23,2.23,0,0,1-1.55.59,3.52,3.52,0,0,1-1.59-.39,7.16,7.16,0,0,1-1.51-1l.19-.23a4.14,4.14,0,0,0,2,.63,1.77,1.77,0,0,0,1.19-.38,1.16,1.16,0,0,0,.46-1c0-.87-.53-1.31-1.58-1.31a8.05,8.05,0,0,0-3.24,1l.47,1.06c.26.56.71,1.43,1.33,2.59a6.87,6.87,0,0,1,.69,1.48,1.12,1.12,0,0,1-.27.8.91.91,0,0,1-.7.28c-.18,0-.35-.23-.53-.7l-.4-1.18c-.32-.87-.86-2.14-1.62-3.8a5.07,5.07,0,0,0-.85.75c-.24.23-.38.35-.44.35a1.59,1.59,0,0,1-1.14-.72,2.27,2.27,0,0,1-.57-1.38l.28-.12a4.16,4.16,0,0,0,.28.51.71.71,0,0,0,.57.24,11.22,11.22,0,0,0,1.47-.53l-.27-.55a3,3,0,0,0-.51-.76.53.53,0,0,1-.19-.33.66.66,0,0,1,.36-.56,1.81,1.81,0,0,1,1.06-.27,7,7,0,0,1,1.37.16,9.27,9.27,0,0,1,1.18.3,2.34,2.34,0,0,0-.51-.66,4.37,4.37,0,0,0-1.06-.63l.13-.26a4.57,4.57,0,0,1,2.08.51A1.49,1.49,0,0,1,112.69,88.56Zm-1,.61-.85-.42a2.79,2.79,0,0,0-1.14-.26c-.45,0-.68.11-.68.32a6.66,6.66,0,0,0,.37,1.06,20.33,20.33,0,0,1,2.3-.7Z"/><path d="M91.83,62.83l1.09.47a18.85,18.85,0,0,0,.64-2.77l1.51.4a.19.19,0,0,1,.19.2c0,.09-.14.19-.41.28l-.42.63h1.19l.6-.68.85.62v-1.1l1.27.59H99l.41-.59,1.09.69a.37.37,0,0,1,.19.27c0,.09-.1.22-.31.32v6A1.05,1.05,0,0,1,100,69a1.28,1.28,0,0,1-.94.27c-.19,0-.28-.12-.28-.37a1,1,0,0,0-.18-.68.44.44,0,0,0-.19-.1V71l-1.37.18V68.71L93.31,70c-.1.27-.19.41-.27.41s-.19-.1-.25-.28l-.44-1.28.46,0V65.09l1.28.18c.21,0,.32.06.32.18s-.12.21-.37.28v3h.41V64.53H93l-.14-.31h1.6V62.35H94.2a8.32,8.32,0,0,1-.89,1.09c.09,0,.14.09.14.14s-.13.18-.41.23a9.55,9.55,0,0,1-.74.94c.16,0,.23.09.23.15a.53.53,0,0,1-.33.33V71l-1.37.22v-5c-.28.21-.57.41-.85.6l-.14-.14A12.29,12.29,0,0,0,91.83,62.83Zm-.23-2.32,1.19.75a.37.37,0,0,1,.19.3c0,.11-.18.17-.5.19A9.92,9.92,0,0,1,90,63.31l-.11-.24A8.93,8.93,0,0,0,91.6,60.51ZM97.06,64V62.35h-1.3v1.87h.1l.6-.69Zm0,2V64.53h-1.3V66h0l.56-.55Zm0,2.4v-2h-1.3v2.18Zm1.36-.59H99v-6h-.55Z"/><path d="M94.62,73.67l1.06.66c.18.13.28.24.28.35s-.11.19-.34.31v1.66l-1.37.17v-.36H91.78v1.87h.37V76.77l1.22.11c.19,0,.29.08.29.17s-.12.19-.37.28v1h.41V76.92l1.22.1c.19,0,.29.06.29.18s-.12.18-.37.27v.85l.5-.55.34.25A7.47,7.47,0,0,0,96,77c.05-.52.07-1,.07-1.55V73.56l1.41.69H98l.37-.65,1,.58c.23.11.34.21.34.28a.63.63,0,0,1-.37.41v1.84c0,.18,0,.28.13.28s.23-.21.29-.61l.16-1.09h.24v1c0,.41.21.64.52.7-.09.76-.33,1.15-.74,1.15h-1a.76.76,0,0,1-.85-.86V74.54h-.63v.85a3.38,3.38,0,0,1-.4,1.76,3.81,3.81,0,0,1-1.07,1l.19.15v.33H94.85v1.85l.46-.53.91.63v.33H91.45l-.12.32A6.41,6.41,0,0,1,90,83.48l-.13-.18a14.83,14.83,0,0,0,.47-2.37q.13-1.52.12-3V73.64l1.41.68h2.43ZM92.38,81l1.1.68a.35.35,0,0,1,.18.28c0,.1-.16.16-.46.18a9.85,9.85,0,0,1-2.6,2l-.14-.22A11,11,0,0,0,92.38,81Zm-.24-.38v-2h-.37a10.72,10.72,0,0,1-.24,2Zm-.36-6v1.51h2.47V74.64Zm1.92,6v-2h-.39v2Zm.09.65a3.54,3.54,0,0,1,1.47.32A1.21,1.21,0,0,1,96,82.68v.06a5.76,5.76,0,0,0,.62-.59l.31-.33A7.18,7.18,0,0,1,96,79.26h-.41L95.45,79h3.19l.65-.41,1,.69a.33.33,0,0,1,.18.28c0,.1-.12.18-.37.22a14.21,14.21,0,0,1-1.7,2,12,12,0,0,0,2.46,1l0,.28a1.31,1.31,0,0,0-1,1.14,8.58,8.58,0,0,1-2.36-1.63l-.06.07a11.35,11.35,0,0,1-3.21,1.6l-.1-.19a9.66,9.66,0,0,0,1-.65.53.53,0,0,1-.4-.4,2.21,2.21,0,0,0-1.06-1.56Zm2.47-2a5.36,5.36,0,0,0,1.24,1.81,16.27,16.27,0,0,0,1.15-1.81Z"/><path d="M93.15,88.8l.92.69v.31H92.52v2.91l1.55-.29.05.22L91,94.43c-.11.31-.2.46-.29.46s-.19-.1-.25-.31L90,93.19,91,93V89.8H90.1L90,89.49H91V86.68l1.58.19c.26,0,.39.1.39.23s-.16.26-.46.36v2h0Zm1.1-2.56,1.49.79h2.35l.37-.74,1.23.72c.22.15.33.26.33.38s-.14.27-.41.4v2.56l1.1.85v.33h-4.2c-.24.37-.48.7-.71,1h3l.5-.68,1.13.75a.32.32,0,0,1,.19.3c0,.08-.12.17-.37.28a13.91,13.91,0,0,1-.36,2.94,1,1,0,0,1-.78.74,4.73,4.73,0,0,1-.93.12c-.16,0-.25-.18-.28-.52a.75.75,0,0,0-.77-.71v-.32H98.5A11.66,11.66,0,0,0,98.84,93a9,9,0,0,1-1.72,2.2,11.29,11.29,0,0,1-3.05,1.92l-.13-.22a12.86,12.86,0,0,0,3.41-4h-.12a11.3,11.3,0,0,1-2,2.19,12.22,12.22,0,0,1-2.56,1.51l-.08-.22a10.92,10.92,0,0,0,1.82-1.71,13.91,13.91,0,0,0,1.27-1.77h-.12a9.49,9.49,0,0,1-.85.94,10.76,10.76,0,0,1-2.37,1.58l-.09-.28a9.32,9.32,0,0,0,1.56-1.7,12,12,0,0,0,1.09-1.82H93.7l-.13-.33h5.36l.55-.66-1.38.25v-.5H95.76v.31l-1.51.24Zm1.51,2.16h2.33v-1H95.76Zm0,1.56h2.33V88.75H95.76Z"/><path d="M94.57,99.35l1.7.15c.27,0,.41.12.41.26s-.17.27-.5.41v.74h2.24l.78-1,1.23,1v.32h-8.1v3.24a7.66,7.66,0,0,1-.55,3.21,6.39,6.39,0,0,1-1.71,2.15l-.13-.22a11.83,11.83,0,0,0,.62-2.24,21.59,21.59,0,0,0,.15-2.9V100l1.78.85H94.6Zm.42,2.24,1.66.15c.26,0,.4.12.4.26s-.17.25-.51.38v1.09H98.2l.74-.86,1.13.86v.33H96.54v2H98l.47-.79,1.22.76c.21.13.32.26.32.38s-.14.26-.41.41v3l-1.6.23v-.69h-3.8v.58l-1.56.23V105l1.55.85H95Zm-.83,7.23H98v-2.65h-3.8Z"/><rect class="cls-30" x="86.61" y="341.09" width="18.94" height="7.43"/><circle cx="90.48" cy="344.8" r="2.13"/><circle cx="96.08" cy="344.8" r="2.13"/><circle cx="101.68" cy="344.8" r="2.13"/><rect class="cls-30" x="288.46" y="505.01" width="18.94" height="7.43"/><circle cx="292.33" cy="508.72" r="2.13"/><circle cx="297.93" cy="508.72" r="2.13"/><circle cx="303.53" cy="508.72" r="2.13"/><rect class="cls-30" x="82.08" y="170.63" width="18.94" height="7.43"/><circle cx="85.95" cy="174.34" r="2.13"/><circle cx="91.55" cy="174.34" r="2.13"/><circle cx="97.16" cy="174.34" r="2.13"/><rect class="cls-30" x="256.24" y="260.92" width="18.94" height="7.43"/><circle cx="260.11" cy="264.63" r="2.13"/><circle cx="265.71" cy="264.63" r="2.13"/><circle cx="271.31" cy="264.63" r="2.13"/><path class="cls-5" d="M402,342.81,415.46,332a.76.76,0,0,1,1.22.48l3.9,25.85a2.69,2.69,0,0,1-.14,1.35l-3.93,10.61a.68.68,0,0,1-1.24.08l-13.58-26.35A1,1,0,0,1,402,342.81Z"/><rect class="cls-12" x="277.63" y="247.36" width="41.32" height="15.22"/><text class="cls-38" transform="translate(282.16 258.79) scale(1 0.98)">目<tspan class="cls-39" x="10.57" y="0">戸橋</tspan></text><rect class="cls-30" x="91.74" y="270.4" width="18.94" height="7.43"/><circle cx="95.61" cy="274.11" r="2.13"/><circle cx="101.21" cy="274.11" r="2.13"/><circle cx="106.81" cy="274.11" r="2.13"/><rect class="cls-30" x="273.15" y="295.26" width="18.94" height="7.43"/><circle cx="277.01" cy="298.98" r="2.13"/><circle cx="282.62" cy="298.98" r="2.13"/><circle cx="288.22" cy="298.98" r="2.13"/><rect class="cls-12" x="91.74" y="281.72" width="53.68" height="15.22"/><text class="cls-7" transform="translate(96.83 293.04) scale(1 0.98)">御殿<tspan class="cls-8" x="21.33" y="0">場</tspan></text><text class="cls-9" transform="translate(130.07 293.34) scale(1.05 1.03)">IC</text><line class="cls-5" x1="386.87" y1="366.97" x2="404.45" y2="349.39"/><text class="cls-40" transform="matrix(0.64, -0.77, 0.75, 0.63, 465.5, 101.59)">至</text><text class="cls-41" transform="matrix(0.67, -0.8, 0.79, 0.66, 472.59, 93.61)"> </text><text class="cls-40" transform="matrix(0.64, -0.77, 0.75, 0.63, 474.56, 90.79)">東京</text><text class="cls-7" transform="translate(16.6 361.39) rotate(-18.51) scale(1 0.98)">至</text><text class="cls-9" transform="translate(26.81 358.28) rotate(-18.51) scale(1.05 1.03)"> </text><text class="cls-7" transform="translate(29.97 356.91) rotate(-18.51) scale(1 0.98)">名古屋</text><text class="cls-7" transform="matrix(0.82, -0.57, 0.56, 0.81, 320.98, 216.22)">東名高速道路</text><path class="cls-5" d="M311.49,501.85a2.55,2.55,0,0,1-1.33-3.18l27-76.25c.72-2,.83-2.56,2.74-2.56h16.28c1.25,0,2,.39,2.39,2,2.08,8.76,8.17,34.6,8.17,34.6a3.19,3.19,0,0,1-.43,2.73s-24.2,43-28.9,51.43c-1.12,2-2.09,2.23-4.11,1.31C327.88,509.4,311.49,501.85,311.49,501.85Z"/></g></svg>